<?xml version="1.0" encoding="UTF-8"?>
<svg width="449px" height="370px" viewBox="0 0 449 370" version="1.1" xmlns="http://www.w3.org/2000/svg" xmlns:xlink="http://www.w3.org/1999/xlink">
    <defs>
        <linearGradient x1="50%" y1="14.4960248%" x2="50%" y2="100.310559%">
            <stop stop-color="#c4f0ea" offset="0%"></stop>
            <stop stop-color="#c4f0ea" stop-opacity="0" offset="100%"></stop>
        </linearGradient>
        <linearGradient x1="100%" y1="-15.9390416%" x2="100%" y2="100.003002%">
            <stop stop-color="#7cccbe" stop-opacity="0.56" offset="0%"></stop>
            <stop stop-color="#E6EBF0" stop-opacity="0" offset="100%"></stop>
        </linearGradient>
        <circle cx="75" cy="75" r="75"></circle>
        <linearGradient x1="50%" y1="14.4960338%" x2="50%" y2="100.310559%">
            <stop stop-color="#c4f0ea" offset="0%"></stop>
            <stop stop-color="#c4f0ea" stop-opacity="0" offset="100%"></stop>
        </linearGradient>
        <path d="M32.01,8 C32.01,3.5818 28.428,0 24.01,0 L8,0 C3.581,0 -5.68434189e-14,3.5818 -5.68434189e-14,8 L-5.68434189e-14,24.0101 C-5.68434189e-14,28.4283 3.581,32.0101 8,32.0101 L24.01,32.0101 C28.428,32.0101 32.01,28.4283 32.01,24.0101 L32.01,8 Z"></path>
        <circle cx="97.4015189" cy="97.4015189" r="75"></circle>
    </defs>
    <g stroke="none" stroke-width="1" fill="none" fill-rule="evenodd">
        <g transform="translate(2.000000, 2.000000)">
            <path d="M85.8391058,75.7333058 C85.8391058,58.6125058 99.7183058,44.7333058 116.839106,44.7333058 L414.839106,44.7333058 C431.960106,44.7333058 445.839106,58.6125058 445.839106,75.7333058 L445.839106,366.733306 L85.8391058,366.733306 L85.8391058,75.7333058 Z" stroke="url(#linearGradient-1)" stroke-width="2" fill="#FFFFFF" fill-rule="nonzero"></path>
            <path d="M155.839106,301.733306 C155.839106,299.524306 157.630106,297.733306 159.839106,297.733306 L281.839106,297.733306 C284.048106,297.733306 285.839106,299.524306 285.839106,301.733306 L285.839106,317.733306 C285.839106,319.942306 284.048106,321.733306 281.839106,321.733306 L159.839106,321.733306 C157.630106,321.733306 155.839106,319.942306 155.839106,317.733306 L155.839106,301.733306 Z" fill="#e8faf8" fill-rule="nonzero"></path>
            <path d="M110.839106,301.733306 C110.839106,299.524306 112.630006,297.733306 114.839106,297.733306 L134.839106,297.733306 C137.048106,297.733306 138.839106,299.524306 138.839106,301.733306 L138.839106,317.733306 C138.839106,319.942306 137.048106,321.733306 134.839106,321.733306 L114.839106,321.733306 C112.630006,321.733306 110.839106,319.942306 110.839106,317.733306 L110.839106,301.733306 Z" fill="#e8faf8" fill-rule="nonzero"></path>
            <polygon fill="url(#linearGradient-2)" fill-rule="nonzero" points="382.445106 218.565306 391.839106 204.445306 400.931106 213.635306 405.839106 200.744306 413.241106 203.774306 420.839106 181.037306 420.839106 277.732306 110.839106 277.732306 110.839106 232.889306 121.476106 221.027306 127.695106 194.249306 133.839106 216.100306 145.839106 197.675306 156.398106 200.209306 160.678106 190.623306 164.339106 177.795306 169.142106 196.378306 176.252106 205.241306 181.940106 211.169306 192.191106 235.160306 196.160106 229.143306 200.426106 216.813306 204.692106 218.565306 210.380106 202.629306 217.490106 207.598306 225.182106 199.864306 233.133106 207.598306 238.821106 216.100306 245.931106 203.774306 252.344106 202.629306 255.885106 197.675306 260.151106 197.675306 265.839106 187.722306 274.371106 218.565306 278.637106 211.169306 282.903106 235.160306 294.279106 240.753306 302.811106 221.031306 309.922106 228.426306 318.339106 239.978306 329.830106 233.357306 344.339106 245.901306 349.738106 221.031306 358.270106 203.774306 363.339106 194.822306 368.339106 198.523306 372.490106 208.704306"></polygon>
            <polyline stroke="#7cccbe" stroke-width="2" opacity="0.8" stroke-linecap="square" stroke-linejoin="round" points="420.839106 181.684306 413.241106 204.369306 405.643106 200.645306 400.931106 213.758306 391.966106 204.369306 382.445106 218.452306 372.490106 209.063306 368.224106 198.547306 363.470106 195.066306 358.270106 204.369306 349.738106 220.800306 344.306106 245.838306 329.830106 232.537306 318.454106 239.579306 309.922106 227.842306 302.811106 220.800306 294.279106 239.579306 282.903106 234.254306 278.637106 211.410306 274.371106 218.452306 265.839106 189.085306 260.151106 198.561306 255.885106 198.561306 252.344106 203.278306 245.931106 204.369306 238.821106 216.105306 233.133106 208.010306 225.182106 200.645306 217.490106 208.010306 210.380106 203.278306 204.692106 218.452306 200.426106 216.784306 196.160106 228.524306 192.191106 234.254306 181.940106 211.410306 176.252106 205.766306 169.142106 197.326306 164.025106 176.733306 160.678106 191.847306 156.398106 200.974306 145.790106 197.324306 133.633106 216.105306 127.695106 195.299306 121.476106 223.774306 110.839106 233.677306"></polyline>
            <line x1="420.839106" y1="245.404306" x2="110.839106" y2="245.404306" stroke="#86cfc3" stroke-width="0.5" opacity="0.3" stroke-linecap="square" stroke-linejoin="round" stroke-dasharray="3"></line>
            <line x1="420.839106" y1="182.363306" x2="110.839106" y2="182.363306" stroke="#86cfc3" stroke-width="0.5" opacity="0.3" stroke-linecap="square" stroke-linejoin="round" stroke-dasharray="3"></line>
            <path d="M358.200106,96.6044058 L351.599106,96.6044058 L351.599106,92.5810058 L357.839106,92.5810058 L357.839106,90.5790058 L351.599106,90.5790058 L351.599106,86.7704058 L358.200106,86.7704058 L358.200106,84.6415058 L349.079106,84.6415058 L349.079106,98.7333058 L358.200106,98.7333058 L358.200106,96.6044058 Z M364.021106,88.2060058 C361.384106,88.2060058 359.714106,90.2665058 359.714106,93.5478058 C359.714106,96.8388058 361.374106,98.8993058 363.972106,98.8993058 C365.466106,98.8993058 366.677106,98.1376058 367.214106,96.9853058 L367.273106,96.9853058 L367.273106,102.141506 L369.704106,102.141506 L369.704106,88.3817058 L367.321106,88.3817058 L367.321106,90.1688058 L367.273106,90.1688058 C366.687106,88.9872058 365.525106,88.2060058 364.021106,88.2060058 Z M364.714106,96.9071058 C363.161106,96.9071058 362.204106,95.6278058 362.204106,93.5575058 C362.204106,91.4872058 363.161106,90.2079058 364.714106,90.2079058 C366.247106,90.2079058 367.273106,91.5263058 367.273106,93.5575058 C367.273106,95.5985058 366.247106,96.9071058 364.714106,96.9071058 Z M380.866106,88.3817058 L378.435106,88.3817058 L378.435106,94.3681058 C378.435106,95.8720058 377.566106,96.8681058 376.159106,96.8681058 C374.792106,96.8681058 374.069106,96.0673058 374.069106,94.5829058 L374.069106,88.3817058 L371.638106,88.3817058 L371.638106,95.0712058 C371.638106,97.4638058 373.064106,98.9188058 375.310106,98.9188058 C376.882106,98.9188058 377.927106,98.1962058 378.474106,96.9364058 L378.523106,96.9364058 L378.523106,98.7333058 L380.866106,98.7333058 L380.866106,88.3817058 Z M384.128106,86.8192058 C384.870106,86.8192058 385.456106,86.2235058 385.456106,85.5009058 C385.456106,84.7685058 384.870106,84.1825058 384.128106,84.1825058 C383.386106,84.1825058 382.790106,84.7685058 382.790106,85.5009058 C382.790106,86.2235058 383.386106,86.8192058 384.128106,86.8192058 Z M382.917106,98.7333058 L385.349106,98.7333058 L385.349106,88.3817058 L382.917106,88.3817058 L382.917106,98.7333058 Z M388.064106,85.9599058 L388.064106,88.3817058 L386.579106,88.3817058 L386.579106,90.2567058 L388.064106,90.2567058 L388.064106,95.9794058 C388.064106,97.9911058 388.943106,98.7821058 391.179106,98.7821058 C391.696106,98.7821058 392.175106,98.7431058 392.439106,98.6845058 L392.439106,96.8290058 C392.282106,96.8583058 391.970106,96.8778058 391.745106,96.8778058 C390.886106,96.8778058 390.495106,96.4872058 390.495106,95.6376058 L390.495106,90.2567058 L392.448106,90.2567058 L392.448106,88.3817058 L390.495106,88.3817058 L390.495106,85.9599058 L388.064106,85.9599058 Z M395.271106,102.581006 C397.634106,102.581006 398.777106,101.711806 399.655106,99.1435058 L403.405106,88.3817058 L400.847106,88.3817058 L398.405106,96.6630058 L398.357106,96.6630058 L395.925106,88.3817058 L393.269106,88.3817058 L396.950106,98.7431058 C396.960106,98.7724058 396.804106,99.2899058 396.804106,99.3192058 C396.540106,100.276306 396.023106,100.657106 395.017106,100.657106 C394.870106,100.657106 394.441106,100.647406 394.314106,100.618106 L394.314106,102.541906 C394.441106,102.571206 395.124106,102.581006 395.271106,102.581006 Z M407.995106,98.7333058 L410.739106,98.7333058 L414.099106,93.5575058 L414.177106,93.5575058 L417.497106,98.7333058 L420.398106,98.7333058 L415.778106,91.7313058 L415.778106,91.6630058 L420.476106,84.6415058 L417.653106,84.6415058 L414.353106,89.9345058 L414.275106,89.9345058 L411.013106,84.6415058 L408.034106,84.6415058 L412.585106,91.6044058 L412.585106,91.6728058 L407.995106,98.7333058 Z" fill="#7cccbe" fill-rule="nonzero"></path>
            <path d="M257.167106,134.811306 L259.745106,134.811306 C262.480106,134.811306 264.089106,136.030306 264.073106,138.217306 C264.073106,140.124306 262.448106,141.436306 260.089106,141.436306 C257.605106,141.436306 255.980106,140.186306 255.823106,138.342306 L251.323106,138.342306 C251.527106,142.483306 254.995106,145.233306 260.089106,145.233306 C265.323106,145.233306 268.870106,142.514306 268.870106,138.421306 C268.870106,135.327306 266.683106,133.342306 263.339106,133.030306 L263.339106,132.936306 C265.995106,132.389306 268.042106,130.530306 268.042106,127.655306 C268.042106,124.045306 264.823106,121.686306 260.058106,121.686306 C255.339106,121.686306 252.058106,124.327306 251.823106,128.452306 L256.151106,128.452306 C256.292106,126.499306 257.839106,125.311306 260.058106,125.311306 C262.308106,125.311306 263.573106,126.483306 263.573106,128.327306 C263.573106,130.171306 262.042106,131.452306 259.683106,131.452306 L257.167106,131.452306 L257.167106,134.811306 Z M277.511106,144.733306 L282.183106,144.733306 L282.183106,122.186306 L277.495106,122.186306 L271.667106,126.233306 L271.667106,130.421306 L277.417106,126.514306 L277.511106,126.514306 L277.511106,144.733306 Z M295.901106,145.233306 C301.073106,145.233306 304.620106,141.999306 304.620106,137.233306 C304.620106,132.936306 301.542106,129.842306 297.245106,129.842306 C294.964106,129.842306 293.105106,130.764306 292.167106,132.280306 L292.073106,132.280306 L292.620106,125.936306 L303.261106,125.936306 L303.261106,122.186306 L288.870106,122.186306 L287.839106,135.421306 L291.948106,135.421306 C292.714106,134.061306 294.120106,133.217306 295.933106,133.217306 C298.401106,133.217306 300.120106,134.921306 300.120106,137.342306 C300.120106,139.795306 298.401106,141.499306 295.917106,141.499306 C293.745106,141.499306 292.073106,140.217306 291.808106,138.264306 L287.448106,138.264306 C287.573106,142.358306 291.073106,145.233306 295.901106,145.233306 Z M309.948106,144.921306 C311.339106,144.921306 312.464106,143.795306 312.464106,142.405306 C312.464106,140.999306 311.339106,139.889306 309.948106,139.889306 C308.542106,139.889306 307.433106,140.999306 307.433106,142.405306 C307.433106,143.795306 308.542106,144.921306 309.948106,144.921306 Z M319.980106,144.733306 L324.651106,144.733306 L324.651106,122.186306 L319.964106,122.186306 L314.136106,126.233306 L314.136106,130.421306 L319.886106,126.514306 L319.980106,126.514306 L319.980106,144.733306 Z M337.948106,145.233306 C343.808106,145.233306 347.355106,140.733306 347.355106,133.264306 C347.355106,125.030306 342.917106,121.671306 337.948106,121.671306 C332.917106,121.671306 329.261106,124.999306 329.261106,129.671306 C329.261106,134.061306 332.558106,137.030306 336.745106,137.030306 C339.698106,137.030306 341.933106,135.561306 342.745106,133.374306 L342.839106,133.374306 C342.870106,138.217306 341.355106,141.499306 337.964106,141.499306 C336.073106,141.499306 334.683106,140.639306 334.183106,139.030306 L329.527106,139.030306 C330.120106,142.686306 333.527106,145.233306 337.948106,145.233306 Z M337.964106,133.530306 C335.605106,133.530306 333.855106,131.842306 333.855106,129.483306 C333.855106,127.202306 335.683106,125.436306 338.011106,125.436306 C340.323106,125.436306 342.151106,127.233306 342.151106,129.561306 C342.151106,131.874306 340.339106,133.530306 337.964106,133.530306 Z M349.855106,129.045306 L354.230106,129.045306 C354.230106,126.874306 355.933106,125.358306 358.183106,125.358306 C360.214106,125.358306 361.605106,126.733306 361.605106,128.545306 C361.605106,130.108306 360.964106,131.186306 358.105106,133.936306 L350.120106,141.499306 L350.120106,144.733306 L366.511106,144.733306 L366.511106,140.983306 L356.292106,140.983306 L356.292106,140.889306 L361.027106,136.358306 C364.839106,132.717306 366.198106,131.014306 366.198106,128.249306 C366.198106,124.499306 363.011106,121.686306 358.183106,121.686306 C353.292106,121.686306 349.855106,124.702306 349.855106,129.045306 Z" fill="#7cccbe" fill-rule="nonzero"></path>
            <path d="M385.987106,127.918306 C388.360106,127.918306 389.754106,125.928306 389.754106,122.784306 C389.754106,119.660106 388.346106,117.684506 385.987106,117.684506 C383.629106,117.684506 382.207106,119.666906 382.207106,122.791306 C382.207106,125.935306 383.609106,127.918306 385.987106,127.918306 Z M385.987106,126.632306 C384.559106,126.632306 383.759106,125.176306 383.759106,122.791306 C383.759106,120.439406 384.579106,118.969606 385.987106,118.969606 C387.396106,118.969606 388.209106,120.432506 388.209106,122.791306 C388.209106,125.183306 387.409106,126.632306 385.987106,126.632306 Z M391.887106,127.808306 C392.386106,127.808306 392.782106,127.412306 392.782106,126.913306 C392.782106,126.414306 392.386106,126.017306 391.887106,126.017306 C391.388106,126.017306 390.991106,126.414306 390.991106,126.913306 C390.991106,127.412306 391.388106,127.808306 391.887106,127.808306 Z M399.235106,127.733306 L400.705106,127.733306 L400.705106,125.771306 L402.066106,125.771306 L402.066106,124.486306 L400.705106,124.486306 L400.705106,117.869006 L398.490106,117.869006 C396.276106,121.082306 395.148106,122.852306 394.300106,124.438306 L394.300106,125.771306 L399.235106,125.771306 L399.235106,127.733306 Z M395.722106,124.465306 C396.508106,123.064306 397.513106,121.505306 399.222106,119.058506 L399.249106,119.058506 L399.249106,124.506306 L395.722106,124.506306 L395.722106,124.465306 Z M406.789106,127.918306 C408.970106,127.918306 410.522106,126.742306 410.522106,125.067306 C410.522106,123.816306 409.633106,122.825306 408.334106,122.538306 L408.334106,122.504306 C409.448106,122.175306 410.152106,121.341306 410.152106,120.309506 C410.152106,118.785106 408.751106,117.684506 406.789106,117.684506 C404.834106,117.684506 403.412106,118.791906 403.412106,120.302606 C403.412106,121.348306 404.130106,122.189306 405.244106,122.504306 L405.244106,122.538306 C403.945106,122.818306 403.057106,123.809306 403.057106,125.067306 C403.057106,126.735306 404.602106,127.918306 406.789106,127.918306 Z M406.789106,121.991306 C405.695106,121.991306 404.937106,121.348306 404.937106,120.446206 C404.937106,119.537006 405.695106,118.901306 406.789106,118.901306 C407.876106,118.901306 408.642106,119.537006 408.642106,120.446206 C408.642106,121.348306 407.869106,121.991306 406.789106,121.991306 Z M406.789106,126.687306 C405.531106,126.687306 404.636106,125.962306 404.636106,124.958306 C404.636106,123.946306 405.531106,123.221306 406.789106,123.221306 C408.047106,123.221306 408.936106,123.939306 408.936106,124.958306 C408.936106,125.962306 408.047106,126.687306 406.789106,126.687306 Z M415.478106,127.918306 C417.850106,127.918306 419.244106,125.928306 419.244106,122.784306 C419.244106,119.660106 417.836106,117.684506 415.478106,117.684506 C413.119106,117.684506 411.697106,119.666906 411.697106,122.791306 C411.697106,125.935306 413.099106,127.918306 415.478106,127.918306 Z M415.478106,126.632306 C414.049106,126.632306 413.249106,125.176306 413.249106,122.791306 C413.249106,120.439406 414.069106,118.969606 415.478106,118.969606 C416.886106,118.969606 417.699106,120.432506 417.699106,122.791306 C417.699106,125.183306 416.900106,126.632306 415.478106,126.632306 Z" fill="#7cccbe" fill-rule="nonzero"></path>
            <path d="M385.196106,148.918306 C387.568106,148.918306 388.963106,146.928306 388.963106,143.784306 C388.963106,140.660306 387.555106,138.684306 385.196106,138.684306 C382.838106,138.684306 381.416106,140.667306 381.416106,143.791306 C381.416106,146.935306 382.818106,148.918306 385.196106,148.918306 Z M385.196106,147.632306 C383.768106,147.632306 382.968106,146.176306 382.968106,143.791306 C382.968106,141.439306 383.788106,139.969306 385.196106,139.969306 C386.605106,139.969306 387.418106,141.432306 387.418106,143.791306 C387.418106,146.183306 386.618106,147.632306 385.196106,147.632306 Z M391.096106,148.808306 C391.595106,148.808306 391.991106,148.412306 391.991106,147.913306 C391.991106,147.414306 391.595106,147.017306 391.096106,147.017306 C390.597106,147.017306 390.200106,147.414306 390.200106,147.913306 C390.200106,148.412306 390.597106,148.808306 391.096106,148.808306 Z M393.618106,141.774306 L395.068106,141.774306 C395.068106,140.721306 395.922106,139.949306 397.050106,139.949306 C398.096106,139.949306 398.779106,140.660306 398.779106,141.569306 C398.779106,142.341306 398.479106,142.847306 397.180106,144.173306 L393.700106,147.680306 L393.700106,148.733306 L400.447106,148.733306 L400.447106,147.441306 L395.751106,147.441306 L395.751106,147.407306 L397.993106,145.158306 C399.757106,143.394306 400.290106,142.608306 400.290106,141.473306 C400.290106,139.921306 398.985106,138.684306 397.050106,138.684306 C395.068106,138.684306 393.618106,139.983306 393.618106,141.774306 Z M405.335106,148.918306 C407.468106,148.918306 408.958106,147.516306 408.958106,145.500306 C408.958106,143.613306 407.598106,142.246306 405.711106,142.246306 C404.740106,142.246306 403.920106,142.622306 403.476106,143.285306 L403.442106,143.285306 L403.742106,140.161306 L408.384106,140.161306 L408.384106,138.869306 L402.505106,138.869306 L402.020106,144.556306 L403.360106,144.556306 C403.777106,143.832306 404.481106,143.456306 405.362106,143.456306 C406.593106,143.456306 407.461106,144.324306 407.461106,145.541306 C407.461106,146.771306 406.600106,147.639306 405.349106,147.639306 C404.248106,147.639306 403.414106,146.969306 403.305106,145.992306 L401.842106,145.992306 C401.931106,147.714306 403.366106,148.918306 405.335106,148.918306 Z M411.925106,143.565306 C413.237106,143.565306 414.099106,142.608306 414.099106,141.152306 C414.099106,139.682306 413.231106,138.739306 411.925106,138.739306 C410.619106,138.739306 409.744106,139.682306 409.744106,141.152306 C409.744106,142.615306 410.619106,143.565306 411.925106,143.565306 Z M412.362106,148.733306 L419.157106,138.869306 L417.920106,138.869306 L411.111106,148.733306 L412.362106,148.733306 Z M411.925106,142.629306 C411.276106,142.629306 410.838106,142.075306 410.838106,141.152306 C410.838106,140.229306 411.276106,139.682306 411.925106,139.682306 C412.581106,139.682306 413.012106,140.229306 413.012106,141.152306 C413.012106,142.075306 412.574106,142.629306 411.925106,142.629306 Z M418.351106,148.856306 C419.656106,148.856306 420.525106,147.899306 420.525106,146.443306 C420.525106,144.973306 419.656106,144.030306 418.351106,144.030306 C417.045106,144.030306 416.170106,144.973306 416.170106,146.443306 C416.170106,147.906306 417.038106,148.856306 418.351106,148.856306 Z M418.351106,147.920306 C417.701106,147.920306 417.257106,147.366306 417.257106,146.443306 C417.257106,145.520306 417.701106,144.973306 418.351106,144.973306 C419.000106,144.973306 419.438106,145.520306 419.438106,146.443306 C419.438106,147.366306 419.000106,147.920306 418.351106,147.920306 Z" fill="#7cccbe" fill-rule="nonzero"></path>
            <circle stroke="#c4f0ea" stroke-width="2" fill="#FFFFFF" fill-rule="nonzero" cx="98.8391058" cy="98.7333058" r="76"></circle>
            <g transform="translate(23.839106, 23.733306)">
                <mask fill="white">
                    <use xlink:href="#path-3"></use>
                </mask>
                <g></g>
                <g mask="url(#mask-4)">
                    <g transform="translate(6.249020, 10.000000)">
                        <line x1="27.21348" y1="0" x2="27.21348" y2="135" stroke="#c4f0ea" stroke-width="1.92308" fill="none" opacity="0.5"></line>
                        <line x1="109.71198" y1="0.248" x2="109.71198" y2="135.248" stroke="#c4f0ea" stroke-width="1.92308" fill="none" opacity="0.5"></line>
                        <line x1="-1.77635684e-15" y1="99.038" x2="134.99998" y2="99.038" stroke="#c4f0ea" stroke-width="1.92308" fill="none" opacity="0.5"></line>
                        <line x1="-1.77635684e-15" y1="31.5443" x2="134.99998" y2="31.5443" stroke="#c4f0ea" stroke-width="1.92308" fill="none" opacity="0.5"></line>
                        <rect stroke="#c4f0ea" stroke-width="1.63291" fill="#FFFFFF" fill-rule="nonzero" x="27.06838" y="30.8204" width="83.3671" height="68.3671" rx="9.18354"></rect>
                        <rect stroke="none" fill="#e8faf8" fill-rule="nonzero" x="58.74998" y="45.0078" width="30" height="10"></rect>
                        <rect stroke="none" fill="#e8faf8" fill-rule="nonzero" x="58.74998" y="60.0059" width="17.5" height="10"></rect>
                        <polygon stroke="none" fill="#e8faf8" fill-rule="nonzero" points="58.74998 75.0039 96.24998 75.0039 96.24998 85.0039 58.74998 85.0039"></polygon>
                        <polygon stroke="none" fill="#FFC800" fill-rule="nonzero" points="111.75098 80 115.53198 90.219 125.75098 94 115.53198 97.781 111.75098 108 107.96998 97.781 97.75098 94 107.96998 90.219"></polygon>
                    </g>
                </g>
            </g>
            <polygon fill="#26e2c5" fill-rule="nonzero" points="88.6972058 73.8679058 102.101406 73.8679058 70.0801058 107.733306 80.7539058 83.8869058 68.8391058 83.8869058 80.7539058 55.7333058 103.839106 55.7333058"></polygon>
            <path d="M376.839106,309.733306 C376.839106,300.896306 369.676106,293.733306 360.839106,293.733306 C352.002106,293.733306 344.839106,300.896306 344.839106,309.733306 C344.839106,318.570306 352.002106,325.733306 360.839106,325.733306 C369.676106,325.733306 376.839106,318.570306 376.839106,309.733306 Z" fill="#1a3832" fill-rule="nonzero"></path>
            <path d="M420.839106,309.733306 C420.839106,300.896306 413.676106,293.733306 404.839106,293.733306 C396.002106,293.733306 388.839106,300.896306 388.839106,309.733306 C388.839106,318.570306 396.002106,325.733306 404.839106,325.733306 C413.676106,325.733306 420.839106,318.570306 420.839106,309.733306 Z" fill="#26e2c5" fill-rule="nonzero"></path>
            <g>
                <path d="M85.8391058,75.4843058 C85.8391058,58.3634058 99.7183058,44.4843058 116.839106,44.4843058 L414.839106,44.4843058 C431.960106,44.4843058 445.839106,58.3635058 445.839106,75.4843058 L445.839106,366.484306 L85.8391058,366.484306 L85.8391058,75.4843058 Z" stroke="url(#linearGradient-1)" stroke-width="2" fill="#FFFFFF" fill-rule="nonzero"></path>
                <path d="M263.839106,247.484306 C263.839106,238.095306 256.228106,230.484306 246.839106,230.484306 L238.839106,230.484306 C229.450106,230.484306 221.839106,238.095306 221.839106,247.484306 L221.839106,255.484306 C221.839106,264.873306 229.450106,272.484306 238.839106,272.484306 L246.839106,272.484306 C256.228106,272.484306 263.839106,264.873306 263.839106,255.484306 L263.839106,247.484306 Z" fill="#e8faf8" fill-rule="nonzero"></path>
                <path d="M186.011106,202.671306 C182.784106,202.671306 180.753106,200.421306 180.753106,196.796306 L180.753106,196.789306 C180.753106,193.234306 182.784106,191.023306 185.987106,191.023306 C188.628106,191.023306 190.284106,192.546306 190.753106,194.578306 L190.784106,194.718306 L188.987106,194.718306 L188.964106,194.632306 C188.487106,193.328306 187.464106,192.570306 185.995106,192.570306 C183.839106,192.570306 182.534106,194.140306 182.534106,196.781306 L182.534106,196.789306 C182.534106,199.484306 183.878106,201.125306 186.027106,201.125306 C187.855106,201.125306 189.120106,199.968306 189.144106,198.257306 L189.144106,198.070306 L186.183106,198.070306 L186.183106,196.640306 L190.870106,196.640306 L190.870106,197.796306 C190.870106,200.851306 189.066106,202.671306 186.011106,202.671306 Z M195.362106,202.484306 L195.362106,192.718306 L191.909106,192.718306 L191.909106,191.211306 L200.558106,191.211306 L200.558106,192.718306 L197.112106,192.718306 L197.112106,202.484306 L195.362106,202.484306 Z M201.987106,202.484306 L201.987106,191.211306 L206.183106,191.211306 C208.394106,191.211306 209.925106,192.695306 209.925106,194.906306 L209.925106,194.921306 C209.925106,197.125306 208.394106,198.632306 206.183106,198.632306 L203.737106,198.632306 L203.737106,202.484306 L201.987106,202.484306 Z M205.745106,192.687306 L203.737106,192.687306 L203.737106,197.164306 L205.745106,197.164306 C207.269106,197.164306 208.144106,196.343306 208.144106,194.929306 L208.144106,194.914306 C208.144106,193.507306 207.269106,192.687306 205.745106,192.687306 Z M211.323106,198.671306 L211.323106,197.148306 L216.347106,197.148306 L216.347106,198.671306 L211.323106,198.671306 Z M223.542106,202.484306 L223.542106,200.242306 L217.901106,200.242306 L217.901106,198.718306 L222.691106,191.211306 L225.222106,191.211306 L225.222106,198.773306 L226.777106,198.773306 L226.777106,200.242306 L225.222106,200.242306 L225.222106,202.484306 L223.542106,202.484306 Z M219.527106,198.796306 L223.558106,198.796306 L223.558106,192.593306 L223.511106,192.593306 L219.527106,198.750306 L219.527106,198.796306 Z M231.597106,202.648306 C229.237106,202.648306 227.698106,201.015306 227.698106,198.375306 L227.698106,198.359306 C227.698106,195.734306 229.253106,194.109306 231.589106,194.109306 C233.933106,194.109306 235.495106,195.726306 235.495106,198.359306 L235.495106,198.375306 C235.495106,201.023306 233.948106,202.648306 231.597106,202.648306 Z M231.605106,201.234306 C232.925106,201.234306 233.769106,200.187306 233.769106,198.375306 L233.769106,198.359306 C233.769106,196.562306 232.909106,195.523306 231.589106,195.523306 C230.292106,195.523306 229.425106,196.562306 229.425106,198.359306 L229.425106,198.375306 C229.425106,200.195306 230.284106,201.234306 231.605106,201.234306 Z M244.945106,192.804306 L244.945106,203.804306 L244.483106,203.804306 L244.483106,192.804306 L244.945106,192.804306 Z M259.378106,202.671306 C256.128106,202.671306 254.097106,200.437306 254.097106,196.851306 L254.097106,196.836306 C254.097106,193.257306 256.136106,191.023306 259.378106,191.023306 C262.628106,191.023306 264.659106,193.265306 264.659106,196.836306 L264.659106,196.851306 C264.659106,200.429306 262.636106,202.671306 259.378106,202.671306 Z M259.378106,201.125306 C261.542106,201.125306 262.870106,199.453306 262.870106,196.851306 L262.870106,196.836306 C262.870106,194.218306 261.519106,192.570306 259.378106,192.570306 C257.245106,192.570306 255.878106,194.211306 255.878106,196.836306 L255.878106,196.851306 C255.878106,199.476306 257.237106,201.125306 259.378106,201.125306 Z M266.128106,205.218306 L266.128106,194.265306 L267.816106,194.265306 L267.816106,195.679306 L267.855106,195.679306 C268.347106,194.703306 269.253106,194.109306 270.425106,194.109306 C272.519106,194.109306 273.862106,195.750306 273.862106,198.375306 L273.862106,198.382306 C273.862106,201.000306 272.511106,202.648306 270.448106,202.648306 C269.284106,202.648306 268.339106,202.054306 267.855106,201.101306 L267.816106,201.101306 L267.816106,205.218306 L266.128106,205.218306 Z M269.987106,201.195306 C271.316106,201.195306 272.144106,200.117306 272.144106,198.382306 L272.144106,198.375306 C272.144106,196.625306 271.308106,195.554306 269.987106,195.554306 C268.706106,195.554306 267.808106,196.664306 267.808106,198.375306 L267.808106,198.382306 C267.808106,200.086306 268.714106,201.195306 269.987106,201.195306 Z M278.683106,202.648306 C276.269106,202.648306 274.808106,201.000306 274.808106,198.406306 L274.808106,198.398306 C274.808106,195.828306 276.292106,194.109306 278.597106,194.109306 C280.901106,194.109306 282.316106,195.765306 282.316106,198.234306 L282.316106,198.804306 L276.495106,198.804306 C276.527106,200.359306 277.378106,201.265306 278.722106,201.265306 C279.722106,201.265306 280.386106,200.750306 280.597106,200.132306 L280.620106,200.070306 L282.222106,200.070306 L282.206106,200.156306 C281.941106,201.461306 280.675106,202.648306 278.683106,202.648306 Z M278.605106,195.492306 C277.511106,195.492306 276.667106,196.234306 276.519106,197.609306 L280.644106,197.609306 C280.503106,196.187306 279.706106,195.492306 278.605106,195.492306 Z M283.628106,202.484306 L283.628106,194.265306 L285.316106,194.265306 L285.316106,195.507306 L285.355106,195.507306 C285.784106,194.671306 286.628106,194.109306 287.870106,194.109306 C289.675106,194.109306 290.714106,195.273306 290.714106,197.164306 L290.714106,202.484306 L289.019106,202.484306 L289.019106,197.484306 C289.019106,196.250306 288.441106,195.554306 287.269106,195.554306 C286.081106,195.554306 285.316106,196.414306 285.316106,197.695306 L285.316106,202.484306 L283.628106,202.484306 Z M291.714106,202.484306 L295.816106,191.211306 L297.706106,191.211306 L301.800106,202.484306 L299.964106,202.484306 L298.933106,199.437306 L294.589106,199.437306 L293.550106,202.484306 L291.714106,202.484306 Z M296.745106,193.078306 L295.058106,198.031306 L298.456106,198.031306 L296.777106,193.078306 L296.745106,193.078306 Z M303.050106,202.484306 L303.050106,191.211306 L304.800106,191.211306 L304.800106,202.484306 L303.050106,202.484306 Z" fill="#7cccbe" fill-rule="nonzero"></path>
                <path d="M150.339106,181.484306 L150.339106,181.484306 C137.360106,181.484306 126.839106,192.005306 126.839106,204.984306 L126.839106,204.984306 C126.839106,217.963306 137.360106,228.484306 150.339106,228.484306 L150.339106,228.484306 C163.318106,228.484306 173.839106,217.963306 173.839106,204.984306 L173.839106,204.984306 C173.839106,192.005306 163.318106,181.484306 150.339106,181.484306 Z" fill="#FFFFFF" fill-rule="nonzero"></path>
                <path d="M85.8391058,71.2265058 C85.8391058,54.1056058 99.7183058,40.2265058 116.839106,40.2265058 L414.839106,40.2265058 C431.960106,40.2265058 445.839106,54.1056058 445.839106,71.2265058 L445.839106,362.226306 L85.8391058,362.226306 L85.8391058,71.2265058 Z" stroke="url(#linearGradient-5)" stroke-width="2" fill="#FFFFFF" fill-rule="nonzero"></path>
                <path d="M164.413106,202.876306 C164.413106,200.379306 166.438106,198.354306 168.935106,198.354306 L364.540106,198.354306 C367.038106,198.354306 369.063106,200.379306 369.063106,202.876306 L369.063106,216.443306 C369.063106,218.941306 367.038106,220.965306 364.540106,220.965306 L168.935106,220.965306 C166.438106,220.965306 164.413106,218.941306 164.413106,216.443306 L164.413106,202.876306 Z" fill="#e8faf8" fill-rule="nonzero"></path>
                <path d="M164.413106,232.232306 C164.413106,230.023306 166.204106,228.232306 168.413106,228.232306 L282.599106,228.232306 C284.808106,228.232306 286.599106,230.023306 286.599106,232.232306 L286.599106,244.232306 C286.599106,246.441306 284.808106,248.232306 282.599106,248.232306 L168.413106,248.232306 C166.204106,248.232306 164.413106,246.441306 164.413106,244.232306 L164.413106,232.232306 Z" fill="#e8faf8" fill-rule="nonzero"></path>
                <path d="M230.496106,89.2455058 C230.496106,87.0364058 232.287106,85.2455058 234.496106,85.2455058 L365.063106,85.2455058 C367.272106,85.2455058 369.063106,87.0364058 369.063106,89.2455058 L369.063106,101.211106 C369.063106,103.420206 367.272106,105.211106 365.063106,105.211106 L234.496106,105.211106 C232.287106,105.211106 230.496106,103.420206 230.496106,101.211106 L230.496106,89.2455058 Z" fill="#FFD000" fill-rule="nonzero"></path>
                <path d="M184.451106,118.090206 C184.451106,115.881106 186.242106,114.090206 188.451106,114.090206 L365.063106,114.090206 C367.272106,114.090206 369.063106,115.881106 369.063106,118.090206 L369.063106,130.056306 C369.063106,132.265306 367.272106,134.056306 365.063106,134.056306 L188.451106,134.056306 C186.242106,134.056306 184.451106,132.265306 184.451106,130.056306 L184.451106,118.090206 Z" fill="#e8faf8" fill-rule="nonzero"></path>
                <g transform="translate(379.198106, 79.223006)">
                    <mask fill="white">
                        <use xlink:href="#path-6"></use>
                    </mask>
                    <g></g>
                    <path d="M32.01,8 C32.01,3.5818 28.428,0 24.01,0 L8,0 C3.581,0 -5.68434189e-14,3.5818 -5.68434189e-14,8 L-5.68434189e-14,24.0101 C-5.68434189e-14,28.4283 3.581,32.0101 8,32.0101 L24.01,32.0101 C28.428,32.0101 32.01,28.4283 32.01,24.0101 L32.01,8 Z" fill="#e8faf8" fill-rule="nonzero" mask="url(#mask-7)"></path>
                </g>
                <path d="M169.011106,170.367306 C165.784106,170.367306 163.753106,168.117306 163.753106,164.492306 L163.753106,164.484306 C163.753106,160.929306 165.784106,158.718306 168.987106,158.718306 C171.628106,158.718306 173.284106,160.242306 173.753106,162.273306 L173.784106,162.414306 L171.987106,162.414306 L171.964106,162.328306 C171.487106,161.023306 170.464106,160.265306 168.995106,160.265306 C166.839106,160.265306 165.534106,161.836306 165.534106,164.476306 L165.534106,164.484306 C165.534106,167.179306 166.878106,168.820306 169.027106,168.820306 C170.855106,168.820306 172.120106,167.664306 172.144106,165.953306 L172.144106,165.765306 L169.183106,165.765306 L169.183106,164.336306 L173.870106,164.336306 L173.870106,165.492306 C173.870106,168.546306 172.066106,170.367306 169.011106,170.367306 Z M178.362106,170.179306 L178.362106,160.414306 L174.909106,160.414306 L174.909106,158.906306 L183.558106,158.906306 L183.558106,160.414306 L180.112106,160.414306 L180.112106,170.179306 L178.362106,170.179306 Z M184.987106,170.179306 L184.987106,158.906306 L189.183106,158.906306 C191.394106,158.906306 192.925106,160.390306 192.925106,162.601306 L192.925106,162.617306 C192.925106,164.820306 191.394106,166.328306 189.183106,166.328306 L186.737106,166.328306 L186.737106,170.179306 L184.987106,170.179306 Z M188.745106,160.382306 L186.737106,160.382306 L186.737106,164.859306 L188.745106,164.859306 C190.269106,164.859306 191.144106,164.039306 191.144106,162.625306 L191.144106,162.609306 C191.144106,161.203306 190.269106,160.382306 188.745106,160.382306 Z M194.323106,166.367306 L194.323106,164.843306 L199.347106,164.843306 L199.347106,166.367306 L194.323106,166.367306 Z M206.542106,170.179306 L206.542106,167.937306 L200.901106,167.937306 L200.901106,166.414306 L205.691106,158.906306 L208.222106,158.906306 L208.222106,166.468306 L209.777106,166.468306 L209.777106,167.937306 L208.222106,167.937306 L208.222106,170.179306 L206.542106,170.179306 Z M202.527106,166.492306 L206.558106,166.492306 L206.558106,160.289306 L206.511106,160.289306 L202.527106,166.445306 L202.527106,166.492306 Z M214.597106,170.343306 C212.237106,170.343306 210.698106,168.711306 210.698106,166.070306 L210.698106,166.054306 C210.698106,163.429306 212.253106,161.804306 214.589106,161.804306 C216.933106,161.804306 218.495106,163.421306 218.495106,166.054306 L218.495106,166.070306 C218.495106,168.718306 216.948106,170.343306 214.597106,170.343306 Z M214.605106,168.929306 C215.925106,168.929306 216.769106,167.882306 216.769106,166.070306 L216.769106,166.054306 C216.769106,164.257306 215.909106,163.218306 214.589106,163.218306 C213.292106,163.218306 212.425106,164.257306 212.425106,166.054306 L212.425106,166.070306 C212.425106,167.890306 213.284106,168.929306 214.605106,168.929306 Z M227.945106,160.499306 L227.945106,171.499306 L227.483106,171.499306 L227.483106,160.499306 L227.945106,160.499306 Z M242.378106,170.367306 C239.128106,170.367306 237.097106,168.132306 237.097106,164.546306 L237.097106,164.531306 C237.097106,160.953306 239.136106,158.718306 242.378106,158.718306 C245.628106,158.718306 247.659106,160.961306 247.659106,164.531306 L247.659106,164.546306 C247.659106,168.125306 245.636106,170.367306 242.378106,170.367306 Z M242.378106,168.820306 C244.542106,168.820306 245.870106,167.148306 245.870106,164.546306 L245.870106,164.531306 C245.870106,161.914306 244.519106,160.265306 242.378106,160.265306 C240.245106,160.265306 238.878106,161.906306 238.878106,164.531306 L238.878106,164.546306 C238.878106,167.171306 240.237106,168.820306 242.378106,168.820306 Z M249.128106,172.914306 L249.128106,161.961306 L250.816106,161.961306 L250.816106,163.375306 L250.855106,163.375306 C251.347106,162.398306 252.253106,161.804306 253.425106,161.804306 C255.519106,161.804306 256.862106,163.445306 256.862106,166.070306 L256.862106,166.078306 C256.862106,168.695306 255.511106,170.343306 253.448106,170.343306 C252.284106,170.343306 251.339106,169.750306 250.855106,168.796306 L250.816106,168.796306 L250.816106,172.914306 L249.128106,172.914306 Z M252.987106,168.890306 C254.316106,168.890306 255.144106,167.812306 255.144106,166.078306 L255.144106,166.070306 C255.144106,164.320306 254.308106,163.250306 252.987106,163.250306 C251.706106,163.250306 250.808106,164.359306 250.808106,166.070306 L250.808106,166.078306 C250.808106,167.781306 251.714106,168.890306 252.987106,168.890306 Z M261.683106,170.343306 C259.269106,170.343306 257.808106,168.695306 257.808106,166.101306 L257.808106,166.093306 C257.808106,163.523306 259.292106,161.804306 261.597106,161.804306 C263.901106,161.804306 265.316106,163.461306 265.316106,165.929306 L265.316106,166.500306 L259.495106,166.500306 C259.527106,168.054306 260.378106,168.961306 261.722106,168.961306 C262.722106,168.961306 263.386106,168.445306 263.597106,167.828306 L263.620106,167.765306 L265.222106,167.765306 L265.206106,167.851306 C264.941106,169.156306 263.675106,170.343306 261.683106,170.343306 Z M261.605106,163.187306 C260.511106,163.187306 259.667106,163.929306 259.519106,165.304306 L263.644106,165.304306 C263.503106,163.882306 262.706106,163.187306 261.605106,163.187306 Z M266.628106,170.179306 L266.628106,161.961306 L268.316106,161.961306 L268.316106,163.203306 L268.355106,163.203306 C268.784106,162.367306 269.628106,161.804306 270.870106,161.804306 C272.675106,161.804306 273.714106,162.968306 273.714106,164.859306 L273.714106,170.179306 L272.019106,170.179306 L272.019106,165.179306 C272.019106,163.945306 271.441106,163.250306 270.269106,163.250306 C269.081106,163.250306 268.316106,164.109306 268.316106,165.390306 L268.316106,170.179306 L266.628106,170.179306 Z M274.714106,170.179306 L278.816106,158.906306 L280.706106,158.906306 L284.800106,170.179306 L282.964106,170.179306 L281.933106,167.132306 L277.589106,167.132306 L276.550106,170.179306 L274.714106,170.179306 Z M279.745106,160.773306 L278.058106,165.726306 L281.456106,165.726306 L279.777106,160.773306 L279.745106,160.773306 Z M286.050106,170.179306 L286.050106,158.906306 L287.800106,158.906306 L287.800106,170.179306 L286.050106,170.179306 Z" fill="#7cccbe" fill-rule="nonzero"></path>
                <path d="M168.052106,185.308306 C166.269106,185.308306 165.211106,183.767306 165.211106,181.307306 L165.211106,181.296306 C165.211106,178.836306 166.269106,177.300306 168.052106,177.300306 C169.835106,177.300306 170.904106,178.836306 170.904106,181.296306 L170.904106,181.307306 C170.904106,183.767306 169.835106,185.308306 168.052106,185.308306 Z M168.052106,184.465306 C169.234106,184.465306 169.932106,183.251306 169.932106,181.307306 L169.932106,181.296306 C169.932106,179.352306 169.234106,178.149306 168.052106,178.149306 C166.870106,178.149306 166.183106,179.352306 166.183106,181.296306 L166.183106,181.307306 C166.183106,183.251306 166.870106,184.465306 168.052106,184.465306 Z M174.631106,185.308306 C173.031106,185.308306 171.994106,184.417306 171.892106,183.192306 L171.887106,183.128306 L172.816106,183.128306 L172.821106,183.181306 C172.902106,183.944306 173.600106,184.470306 174.631106,184.470306 C175.647106,184.470306 176.339106,183.901306 176.339106,183.079306 L176.339106,183.068306 C176.339106,182.118306 175.657106,181.586306 174.572106,181.586306 L173.600106,181.586306 L173.600106,180.770306 L174.529106,180.770306 C175.453106,180.770306 176.098106,180.200306 176.098106,179.427306 L176.098106,179.416306 C176.098106,178.605306 175.566106,178.138306 174.621106,178.138306 C173.708106,178.138306 173.058106,178.621306 172.977106,179.405306 L172.972106,179.459306 L172.043106,179.459306 L172.048106,179.405306 C172.172106,178.143306 173.171106,177.300306 174.621106,177.300306 C176.098106,177.300306 177.070106,178.122306 177.070106,179.298306 L177.070106,179.309306 C177.070106,180.265306 176.393106,180.920306 175.426106,181.124306 L175.426106,181.146306 C176.554106,181.242306 177.322106,181.946306 177.322106,183.047306 L177.322106,183.058306 C177.322106,184.352306 176.184106,185.308306 174.631106,185.308306 Z M180.980106,177.429306 L178.794106,187.059306 L177.902106,187.059306 L180.089106,177.429306 L180.980106,177.429306 Z M183.580106,185.179306 L183.580106,178.455306 L183.558106,178.455306 L181.506106,179.883306 L181.506106,178.911306 L183.569106,177.429306 L184.514106,177.429306 L184.514106,185.179306 L183.580106,185.179306 Z M189.209106,177.300306 C190.637106,177.300306 192.152106,178.288306 192.152106,181.162306 L192.152106,181.172306 C192.152106,183.783306 191.040106,185.308306 189.144106,185.308306 C187.828106,185.308306 186.845106,184.556306 186.588106,183.428306 L186.571106,183.358306 L187.554106,183.358306 L187.576106,183.418306 C187.807106,184.057306 188.360106,184.454306 189.155106,184.454306 C190.600106,184.454306 191.169106,183.052306 191.212106,181.425306 C191.217106,181.371306 191.217106,181.317306 191.217106,181.258306 L191.196106,181.258306 C190.884106,181.946306 190.089106,182.504306 189.037106,182.504306 C187.560106,182.504306 186.464106,181.414306 186.464106,179.942306 L186.464106,179.932306 C186.464106,178.406306 187.624106,177.300306 189.209106,177.300306 Z M189.203106,181.656306 C190.218106,181.656306 190.986106,180.936306 190.986106,179.948306 L190.986106,179.942306 C190.986106,178.949306 190.213106,178.159306 189.219106,178.159306 C188.231106,178.159306 187.447106,178.933306 187.447106,179.910306 L187.447106,179.921306 C187.447106,180.931306 188.183106,181.656306 189.203106,181.656306 Z M195.525106,185.179306 L195.525106,184.513306 L198.254106,181.667306 C199.301106,180.576306 199.543106,180.157306 199.543106,179.513306 L199.543106,179.502306 C199.537106,178.712306 198.941106,178.143306 198.098106,178.143306 C197.131106,178.143306 196.411106,178.809306 196.411106,179.642306 L196.411106,179.669306 L195.477106,179.669306 L195.477106,179.636306 C195.477106,178.294306 196.637106,177.300306 198.082106,177.300306 C199.484106,177.300306 200.509106,178.240306 200.509106,179.454306 L200.509106,179.464306 C200.509106,180.313306 200.117106,180.952306 198.694106,182.408306 L196.852106,184.298306 L196.852106,184.320306 L200.638106,184.320306 L200.638106,185.179306 L195.525106,185.179306 Z M203.732106,185.179306 L203.732106,178.455306 L203.711106,178.455306 L201.659106,179.883306 L201.659106,178.911306 L203.721106,177.429306 L204.667106,177.429306 L204.667106,185.179306 L203.732106,185.179306 Z M207.186106,179.835306 C206.842106,179.835306 206.573106,179.566306 206.573106,179.223306 C206.573106,178.879306 206.842106,178.610306 207.186106,178.610306 C207.529106,178.610306 207.798106,178.879306 207.798106,179.223306 C207.798106,179.566306 207.529106,179.835306 207.186106,179.835306 Z M207.186106,183.992306 C206.842106,183.992306 206.573106,183.724306 206.573106,183.380306 C206.573106,183.036306 206.842106,182.768306 207.186106,182.768306 C207.529106,182.768306 207.798106,183.036306 207.798106,183.380306 C207.798106,183.724306 207.529106,183.992306 207.186106,183.992306 Z M211.697106,185.308306 C209.914106,185.308306 208.856106,183.767306 208.856106,181.307306 L208.856106,181.296306 C208.856106,178.836306 209.914106,177.300306 211.697106,177.300306 C213.481106,177.300306 214.549106,178.836306 214.549106,181.296306 L214.549106,181.307306 C214.549106,183.767306 213.481106,185.308306 211.697106,185.308306 Z M211.697106,184.465306 C212.879106,184.465306 213.577106,183.251306 213.577106,181.307306 L213.577106,181.296306 C213.577106,179.352306 212.879106,178.149306 211.697106,178.149306 C210.516106,178.149306 209.828106,179.352306 209.828106,181.296306 L209.828106,181.307306 C209.828106,183.251306 210.516106,184.465306 211.697106,184.465306 Z M215.898106,185.179306 L219.405106,178.310306 L219.405106,178.288306 L215.232106,178.288306 L215.232106,177.429306 L220.361106,177.429306 L220.361106,178.326306 L216.913106,185.179306 L215.898106,185.179306 Z" fill="#7cccbe" fill-rule="nonzero" opacity="0.8"></path>
                <path d="M152.839106,163.179306 C152.839106,158.761306 149.257106,155.179306 144.839106,155.179306 L126.839106,155.179306 C122.421106,155.179306 118.839106,158.761306 118.839106,163.179306 L118.839106,181.179306 C118.839106,185.598306 122.421106,189.179306 126.839106,189.179306 L144.839106,189.179306 C149.257106,189.179306 152.839106,185.598306 152.839106,181.179306 L152.839106,163.179306 Z" fill="#e8faf8" fill-rule="nonzero"></path>
                <path d="M132.844106,168.918306 L132.844106,166.310306 C132.844106,166.134306 132.893106,166.009306 133.067106,165.908306 L137.865106,163.099306 C138.511106,162.723306 139.332106,162.547306 140.127106,162.547306 C143.160106,162.547306 145.074106,164.905306 145.074106,167.438306 C145.074106,167.639306 145.074106,167.915306 145.024106,168.141306 L140.003106,165.181306 C139.754106,165.030306 139.481106,165.005306 139.183106,165.181306 L132.844106,168.918306 Z M143.931106,178.174306 L143.931106,172.380306 C143.931106,172.054306 143.806106,171.828306 143.508106,171.652306 L137.144106,167.915306 L139.381106,166.611306 C139.506106,166.535306 139.705106,166.535306 139.829106,166.611306 L144.651106,169.420306 C146.019106,170.223306 146.963106,171.978306 146.963106,173.659306 C146.963106,175.641306 145.770106,177.472306 143.931106,178.174306 Z M131.526106,173.183306 L129.314106,171.853306 C129.140106,171.753306 129.090106,171.627306 129.090106,171.452306 L129.090106,165.858306 C129.090106,163.124306 131.153106,161.067306 133.962106,161.067306 C135.056106,161.067306 136.100106,161.443306 136.945106,162.121306 L131.949106,165.055306 C131.650106,165.231306 131.526106,165.457306 131.526106,165.783306 L131.526106,173.183306 Z M135.851106,175.691306 L132.844106,173.985306 L132.844106,170.373306 L135.851106,168.667306 L138.835106,170.373306 L138.835106,173.985306 L135.851106,175.691306 Z M137.716106,183.291306 C136.622106,183.291306 135.578106,182.915306 134.733106,182.238306 L139.729106,179.303306 C140.028106,179.127306 140.152106,178.902306 140.152106,178.576306 L140.152106,171.176306 L142.389106,172.505306 C142.563106,172.606306 142.613106,172.731306 142.613106,172.907306 L142.613106,178.500306 C142.613106,181.234306 140.525106,183.291306 137.716106,183.291306 Z M131.849106,177.748306 L127.027106,174.938306 C125.659106,174.136306 124.715106,172.380306 124.715106,170.699306 C124.715106,168.692306 125.933106,166.886306 127.772106,166.184306 L127.772106,172.004306 C127.772106,172.330306 127.897106,172.555306 128.195106,172.731306 L134.534106,176.443306 L132.297106,177.748306 C132.172106,177.823306 131.973106,177.823306 131.849106,177.748306 Z M131.551106,181.811306 C128.692106,181.811306 126.604106,179.654306 126.604106,176.970306 C126.604106,176.719306 126.629106,176.468306 126.654106,176.243306 L131.650106,179.152306 C131.949106,179.328306 132.197106,179.328306 132.496106,179.152306 L138.835106,175.440306 L138.835106,178.049306 C138.835106,178.224306 138.785106,178.350306 138.611106,178.450306 L133.813106,181.260306 C133.167106,181.636306 132.346106,181.811306 131.551106,181.811306 Z M137.716106,184.646306 C140.699106,184.646306 143.185106,182.489306 143.732106,179.629306 C146.516106,178.927306 148.306106,176.318306 148.306106,173.659306 C148.306106,171.903306 147.560106,170.223306 146.193106,168.994306 C146.317106,168.467306 146.416106,167.915306 146.416106,167.388306 C146.416106,163.851306 143.558106,161.192306 140.276106,161.192306 C139.605106,161.192306 138.934106,161.318306 138.288106,161.544306 C137.169106,160.415306 135.653106,159.712306 133.962106,159.712306 C130.979106,159.712306 128.493106,161.870306 127.946106,164.729306 C125.162106,165.432306 123.372106,168.040306 123.372106,170.699306 C123.372106,172.455306 124.118106,174.136306 125.485106,175.365306 C125.361106,175.892306 125.262106,176.443306 125.262106,176.970306 C125.262106,180.507306 128.120106,183.166306 131.402106,183.166306 C132.073106,183.166306 132.744106,183.040306 133.390106,182.815306 C134.509106,183.943306 136.025106,184.646306 137.716106,184.646306 Z" fill="#7cccbe" fill-rule="nonzero"></path>
                <rect fill="#e8faf8" fill-rule="nonzero" x="120.252206" y="285.976306" width="246.626" height="33.7998" rx="16.8999"></rect>
                <polyline stroke="#7cccbe" stroke-width="2.45455" points="381.703106 209.660306 386.203106 214.160306 395.203106 205.160306"></polyline>
                <polyline stroke="#7cccbe" stroke-width="2.45455" points="299.089106 238.232306 303.589106 242.732306 312.589106 233.732306"></polyline>
                <path d="M411.985106,302.876306 C411.985106,293.607306 404.471106,286.094306 395.203106,286.094306 C385.934106,286.094306 378.421106,293.607306 378.421106,302.876306 C378.421106,312.145306 385.934106,319.658306 395.203106,319.658306 C404.471106,319.658306 411.985106,312.145306 411.985106,302.876306 Z" fill="#26e2c5" fill-rule="nonzero"></path>
                <path d="M396.026106,293.324306 C395.595106,292.893306 394.895106,292.893306 394.463106,293.324306 L387.432106,300.355306 C387.001106,300.787306 387.001106,301.486306 387.432106,301.918306 C387.864106,302.349306 388.563106,302.349306 388.995106,301.918306 L395.245106,295.668306 L401.495106,301.918306 C401.926106,302.349306 402.626106,302.349306 403.057106,301.918306 C403.489106,301.486306 403.489106,300.787306 403.057106,300.355306 L396.026106,293.324306 Z M394.140106,311.331306 C394.140106,311.941306 394.635106,312.435306 395.245106,312.435306 C395.855106,312.435306 396.350106,311.941306 396.350106,311.331306 L394.140106,311.331306 Z M394.140106,294.106306 L394.140106,311.331306 L396.350106,311.331306 L396.350106,294.106306 L394.140106,294.106306 Z" fill="#FFFFFF" fill-rule="nonzero"></path>
                <path d="M144.065106,302.717306 C144.065106,300.755306 142.475106,299.165306 140.512106,299.165306 C138.550106,299.165306 136.960106,300.755306 136.960106,302.717306 C136.960106,304.680306 138.550106,306.270306 140.512106,306.270306 C142.475106,306.270306 144.065106,304.680306 144.065106,302.717306 Z" fill="#7cccbe" fill-rule="nonzero"></path>
                <path d="M156.016106,302.717306 C156.016106,300.755306 154.425106,299.165306 152.463106,299.165306 C150.501106,299.165306 148.910106,300.755306 148.910106,302.717306 C148.910106,304.680306 150.501106,306.270306 152.463106,306.270306 C154.425106,306.270306 156.016106,304.680306 156.016106,302.717306 Z" fill="#7cccbe" fill-rule="nonzero"></path>
                <path d="M167.966106,302.717306 C167.966106,300.755306 166.375106,299.165306 164.413106,299.165306 C162.451106,299.165306 160.860106,300.755306 160.860106,302.717306 C160.860106,304.680306 162.451106,306.270306 164.413106,306.270306 C166.375106,306.270306 167.966106,304.680306 167.966106,302.717306 Z" fill="#7cccbe" fill-rule="nonzero"></path>
                <path d="M399.142106,96.0928058 L398.973106,96.2375058 L399.177106,96.3267058 C402.642106,97.8427058 405.023106,101.307706 405.023106,105.203606 C405.023106,105.501306 404.925106,105.738606 404.762106,105.901006 C404.600106,106.063506 404.363106,106.162106 404.065106,106.162106 C403.767106,106.162106 403.530106,106.063506 403.367106,105.901006 C403.205106,105.738606 403.106106,105.501306 403.106106,105.203606 C403.106106,100.953506 399.530106,97.3769058 395.280106,97.3769058 C391.030106,97.3769058 387.453106,100.953506 387.453106,105.203606 C387.453106,105.501306 387.354106,105.738606 387.192106,105.901006 C387.029106,106.063506 386.792106,106.162106 386.494106,106.162106 C386.197106,106.162106 385.959106,106.063506 385.797106,105.901006 C385.635106,105.738606 385.536106,105.501306 385.536106,105.203606 C385.536106,101.307706 387.917106,97.8427058 391.382106,96.3267058 L391.586106,96.2375058 L391.417106,96.0928058 C389.901106,94.7934058 388.830106,93.0722058 388.830106,90.9277058 C388.830106,87.2711058 391.623106,84.4784058 395.280106,84.4784058 C398.936106,84.4784058 401.729106,87.2711058 401.729106,90.9277058 C401.729106,93.0722058 400.658106,94.7934058 399.142106,96.0928058 Z M390.747106,90.9277058 C390.747106,93.4207058 392.787106,95.4599058 395.280106,95.4599058 C397.773106,95.4599058 399.812106,93.4207058 399.812106,90.9277058 C399.812106,88.4346058 397.773106,86.3954058 395.280106,86.3954058 C392.787106,86.3954058 390.747106,88.4346058 390.747106,90.9277058 Z" stroke="#e8faf8" stroke-width="0.279246" fill="#7cccbe" fill-rule="nonzero"></path>
                <rect fill="#7cccbe" fill-rule="nonzero" x="227.329106" y="159.121306" width="1.28787" height="12.396"></rect>
                <circle stroke="#c4f0ea" stroke-width="2" fill="#FFFFFF" fill-rule="nonzero" transform="translate(98.700206, 98.700206) rotate(-21.680300) translate(-98.700206, -98.700206) " cx="98.7002058" cy="98.7002058" r="76"></circle>
                <g transform="translate(1.298687, 1.298687)">
                    <mask fill="white">
                        <use xlink:href="#path-8"></use>
                    </mask>
                    <g transform="translate(97.401519, 97.401519) rotate(-21.680300) translate(-97.401519, -97.401519) "></g>
                    <g mask="url(#mask-9)" fill-rule="nonzero">
                        <g transform="translate(-22.135981, -22.376931)">
                            <rect stroke="#d0f5ef" stroke-width="2" fill="#e8faf8" transform="translate(85.728337, 60.584577) rotate(-30.000000) translate(-85.728337, -60.584577) " x="59.6063873" y="34.4626273" width="52.2439" height="52.2439" rx="9"></rect>
                            <rect stroke="#d0f5ef" stroke-width="2" fill="#e8faf8" transform="translate(142.471647, 35.683247) rotate(-30.000000) translate(-142.471647, -35.683247) " x="116.349697" y="9.5612973" width="52.2439" height="52.2439" rx="9"></rect>
                            <rect stroke="#d0f5ef" stroke-width="2" fill="#e8faf8" transform="translate(35.683247, 97.337047) rotate(-30.000000) translate(-35.683247, -97.337047) " x="9.5612973" y="71.2150973" width="52.2439" height="52.2439" rx="9"></rect>
                            <rect stroke="#d0f5ef" stroke-width="2" fill="#e8faf8" transform="translate(154.139647, 178.432847) rotate(-30.000000) translate(-154.139647, -178.432847) " x="128.017697" y="152.310897" width="52.2439" height="52.2439" rx="9"></rect>
                            <rect stroke="#d0f5ef" stroke-width="2" fill="#e8faf8" transform="translate(203.669647, 141.680747) rotate(-30.000000) translate(-203.669647, -141.680747) " x="177.547697" y="115.558797" width="52.2439" height="52.2439" rx="9"></rect>
                            <rect stroke="#d0f5ef" stroke-width="2" fill="#e8faf8" transform="translate(96.881147, 203.334847) rotate(-30.000000) translate(-96.881147, -203.334847) " x="70.7591973" y="177.212897" width="52.2439" height="52.2439" rx="9"></rect>
                            <rect stroke="#00b49a" stroke-width="2" fill="#26e2c5" transform="translate(119.795222, 119.714672) rotate(-30.000000) translate(-119.795222, -119.714672) " x="86.9160225" y="86.8354725" width="65.7584" height="65.7584" rx="9"></rect>
                            <rect stroke="#d0f5ef" stroke-width="2" fill="#e8faf8" transform="translate(177.568647, 85.280847) rotate(-30.000000) translate(-177.568647, -85.280847) " x="151.446697" y="59.1588973" width="52.2439" height="52.2439" rx="9"></rect>
                            <rect stroke="#d0f5ef" stroke-width="2" fill="#e8faf8" transform="translate(59.185247, 154.148847) rotate(-30.000000) translate(-59.185247, -154.148847) " x="33.0632973" y="128.026897" width="52.2439" height="52.2439" rx="9"></rect>
                            <path d="M113.509896,117.078244 L111.908738,113.035101 C111.800974,112.762954 111.800845,112.537683 112.007943,112.274651 L117.690386,104.963268 C118.457313,103.981585 119.615873,103.203947 120.843942,102.713691 C125.525904,100.844731 129.928017,103.320098 131.482879,107.24709 C131.606075,107.558302 131.775437,107.986706 131.837294,108.36693 L122.268605,106.873376 C121.79242,106.792644 121.35488,106.922858 121.002151,107.378606 L113.509896,117.078244 Z M135.379482,125.078244 L131.872273,116.332475 C131.674934,115.840542 131.349063,115.574289 130.788508,115.488074 L118.837294,113.666144 L121.454112,110.354467 C121.597736,110.166823 121.900586,110.046375 122.135398,110.085679 L131.178326,111.432157 C133.745777,111.823929 136.246724,113.90704 137.263985,116.444048 C138.463493,119.434954 137.755093,122.91399 135.379482,125.078244 Z M113.326207,125.078244 L109.271249,124.376282 C108.954852,124.327735 108.807571,124.162413 108.704305,123.888189 L105.414571,115.151055 C103.806593,110.880238 105.649225,106.386367 109.804727,104.641827 C111.422933,103.962564 113.188643,103.901946 114.837294,104.434912 L109.171587,112.121465 C108.833568,112.580692 108.782482,113.011054 108.974263,113.520141 L113.326207,125.078244 Z M122.113039,126.078244 L116.157489,125.279656 L113.837294,119.622437 L117.601588,115.078244 L123.5171,115.89262 L125.837294,121.549839 L122.113039,126.078244 Z M129.35576,136.514431 C127.581451,137.194063 125.645124,137.254416 123.837294,136.721732 L130.05003,129.034545 C130.420672,128.575334 130.476677,128.144988 130.266419,127.635921 L125.494414,116.078244 L129.98108,116.765748 C130.328011,116.814293 130.489622,116.979609 130.602858,117.253824 L134.210205,125.990634 C135.973476,130.261294 133.912466,134.770742 129.35576,136.514431 Z M116.538913,132.070762 L107.494784,130.725539 C104.927004,130.3354 102.425648,128.252965 101.408288,125.719589 C100.193513,122.693472 100.955031,119.239214 103.330934,117.078244 L106.853731,125.852591 C107.051133,126.345333 107.377108,126.61007 107.937617,126.696205 L119.837294,128.494902 L117.220155,131.802224 C117.076513,131.990961 116.773625,132.110029 116.538913,132.070762 Z M118.823658,138.445715 C114.406842,140.207788 109.855704,138.150082 108.207233,133.98909 C108.053184,133.599689 107.937511,133.195962 107.837294,132.830003 L117.344161,134.262582 C117.912859,134.34984 118.297009,134.197465 118.650011,133.741644 L126.163387,124.078244 L127.765785,128.123328 C127.873633,128.395518 127.873762,128.619521 127.666633,128.882595 L121.979657,136.195262 C121.212265,137.177231 120.052678,137.954731 118.823658,138.445715 Z M130.450974,138.76352 C135.084696,136.923264 137.613782,132.042416 136.697554,127.268438 C140.588456,124.461136 141.757684,119.310505 140.115859,115.184266 C139.031573,112.460375 136.835341,110.312541 133.952655,109.24905 C133.820348,108.354988 133.634024,107.437467 133.308738,106.620299 C131.12464,101.133027 125.042333,98.7710613 119.945278,100.795082 C118.902746,101.209009 117.937588,101.817649 117.073031,102.566524 C114.638412,101.505249 111.84928,101.350808 109.223639,102.393446 C104.590008,104.233441 102.060752,109.113507 102.977071,113.887485 C99.0861303,116.694787 97.9168634,121.846722 99.5587796,125.971657 C100.643065,128.695549 102.839298,130.843383 105.722036,131.906873 C105.854277,132.800935 106.040537,133.718456 106.365822,134.535624 C108.549881,140.023809 114.632279,142.385383 119.729334,140.361363 C120.771866,139.946914 121.737024,139.338274 122.601582,138.590182 C125.036201,139.651066 127.825333,139.806158 130.450974,138.76352 Z" stroke="none" fill="#FFFFFF"></path>
                            <polygon stroke="none" fill="#FFFFFF" points="167.1114 83.76305 161.5764 86.95865 161.0254 86.00265 158.4034 81.46195 163.9384 78.26645"></polygon>
                            <polygon stroke="none" fill="#FFFFFF" points="196.8004 66.61345 169.0074 82.65975 168.4564 81.70475 165.8374 77.16895 193.6304 61.12275"></polygon>
                            <polygon stroke="none" fill="#FFFFFF" points="163.1154 89.62355 167.3674 96.98765 170.6124 102.60875 172.7244 106.26665 177.9994 98.36615 177.9954 98.34595 195.5794 88.19375 188.0824 75.20855"></polygon>
                            <polygon stroke="none" fill="#FFFFFF" points="192.4804 73.97025 185.5654 77.96295 191.7634 88.69795 198.6784 84.70525"></polygon>
                        </g>
                    </g>
                </g>
                <g transform="translate(120.000000, 139.000000)" stroke="#1a3832" stroke-linecap="round" stroke-width="2.17301">
                    <path d="M0,16 L3.79952486,2.57726638 C4.32415935,0.723935131 6.33309518,-0.376791299 8.28648392,0.11873759 C10.2400803,0.614167944 11.3984189,2.51824435 10.8737324,4.3715756 L8.00433584,14.5085359"></path>
                    <path d="M8,14.835189 L10.8006525,4.6307239 C11.3198855,2.73900777 13.3081381,1.61545401 15.2415697,2.12115881 L15.3144246,2.14026858 C17.2478562,2.64602367 18.3943203,4.58953733 17.8750359,6.48130374 L14.4741262,18.8727308 C14.3010313,19.5033029 14.683186,20.151124 15.327629,20.319642 L17.9281101,21"></path>
                    <path d="M6.93320704,3 L4.12611307,13.4140563 C3.60203231,15.3582223 4.75914828,17.3556219 6.71063089,17.875503 C8.66200977,18.3951773 10.6688253,17.2404718 11.192906,15.2963575 L14,4.88230122"></path>
                </g>
            </g>
            <line x1="119.291406" y1="267.643306" x2="412.387106" y2="267.643306" stroke="#EAEBEC" stroke-width="0.5" stroke-linecap="square"></line>
        </g>
    </g>
</svg>
