<?xml version="1.0" encoding="UTF-8"?>
<svg width="518px" height="338px" viewBox="0 0 518 338" version="1.1" xmlns="http://www.w3.org/2000/svg" xmlns:xlink="http://www.w3.org/1999/xlink">
    <defs>
        <rect x="0" y="7.10542736e-15" width="81.1189" height="55.4968" rx="4.78421"></rect>
        <rect x="0" y="0" width="46" height="51"></rect>
        <polygon points="43.1612 2 2 2 2 41.29 16.394 41.29 22.5806 47.839 28.7673 41.29 43.1612 41.29"></polygon>
    </defs>
    <g stroke="none" stroke-width="1" fill="none" fill-rule="evenodd">
        <g transform="translate(1.000000, 0.000000)">
            <path d="M90.21758,176.08 C62.44758,176.08 39.93548,198.621 39.93548,226.427" stroke="#c4f0ea" stroke-width="1.08718" stroke-dasharray="4.08"></path>
            <ellipse fill="#c4f0ea" fill-rule="nonzero" transform="translate(88.858510, 176.082820) scale(-1, 1) rotate(-180.000000) translate(-88.858510, -176.082820) " cx="88.85851" cy="176.08282" rx="4.07693" ry="4.08218"></ellipse>
            <path d="M442.65348,151.347 C470.42348,151.347 492.93548,128.806 492.93548,101" stroke="#c4f0ea" stroke-width="1.08718" stroke-dasharray="4.08"></path>
            <ellipse fill="#c4f0ea" fill-rule="nonzero" transform="translate(444.012550, 151.344180) scale(-1, 1) translate(-444.012550, -151.344180) " cx="444.01255" cy="151.34418" rx="4.07693036" ry="4.08217964"></ellipse>
            <polygon fill="#009e88" fill-rule="nonzero" points="173.06048 166.348 140.43548 199.848 320.93548 203.348 294.93548 178.681"></polygon>
            <path d="M269.56748,157.865 C279.23248,157.865 287.06748,150.03 287.06748,140.365 L287.06748,58.3477 C287.06748,50.3395 293.55948,43.8477 301.56748,43.8477 L417.98648,43.8477 C425.99448,43.8477 432.48648,50.3395 432.48648,58.3477 L432.48648,320.564 C432.48648,328.572 425.99448,335.064 417.98648,335.064 L152.93548,335.064 C144.92748,335.064 138.43548,328.572 138.43548,320.564 L138.43548,172.365 C138.43548,164.357 144.92748,157.865 152.93548,157.865 L269.56748,157.865 Z" stroke="#009e88" stroke-width="3" fill="#00dbb6" fill-rule="nonzero"></path>
            <rect fill="#00b49a" fill-rule="nonzero" x="137.93548" y="42.3477" width="182" height="159"></rect>
            <rect fill="#e8faf8" fill-rule="nonzero" x="137.93548" y="0.3477" width="182" height="42"></rect>
            <path d="M102.50948,51.9999 C102.50948,24.1096 125.11948,1.5 153.00948,1.5 L296.54648,1.5 L296.54648,178.215 L102.50948,178.215 L102.50948,51.9999 Z" stroke="#c4f0ea" stroke-width="3" fill="#FFFFFF" fill-rule="nonzero"></path>
            <path d="M225.58048,77.3025 L228.32748,84.292 L239.08048,84.292 L221.87648,43.4321 L212.19948,43.4321 L194.93548,84.292 L205.68748,84.292 L208.37648,77.3025 L225.58048,77.3025 Z M222.23448,68.7005 L211.72148,68.7005 L216.97848,55.2001 L222.23448,68.7005 Z" fill="#ecfcfa" fill-rule="nonzero"></path>
            <path d="M243.36348,43.6711 L243.36348,84.292 L253.45848,84.292 L253.45848,73.9572 L258.95448,73.9572 C270.00548,73.9572 276.93448,68.0434 276.93448,58.5453 C276.93448,49.4057 270.36348,43.6711 259.73048,43.6711 L243.36348,43.6711 Z M253.45848,65.1163 L253.45848,52.5717 L259.55148,52.5717 C263.97248,52.5717 266.89948,54.9014 266.89948,58.5453 C266.89948,62.5477 263.97248,65.1163 259.55148,65.1163 L253.45848,65.1163 Z" fill="#ecfcfa" fill-rule="nonzero"></path>
            <polygon fill="#ecfcfa" fill-rule="nonzero" points="294.93548 43.6711 284.84048 43.6711 284.84048 84.292 294.93548 84.292"></polygon>
            <polygon fill="#FFC800" fill-rule="nonzero" points="100.93548 84.348 173.93548 84.348 173.93548 179.348 100.93548 179.348"></polygon>
            <path d="M138.43548,127.7 C143.10548,127.7 146.93548,124.149 146.93548,119.477 C146.93548,114.898 143.10548,111.348 138.43548,111.348 C133.76548,111.348 129.93548,114.898 129.93548,119.477 C129.93548,124.149 133.76548,127.7 138.43548,127.7 Z M130.02848,159.348 L138.43548,159.348 L144.03948,150.003 C146.74848,145.425 146.84248,144.21 146.84248,142.248 C146.84248,137.669 143.10548,134.212 138.43548,134.212 C133.76548,134.212 130.02848,137.762 130.02848,142.154 C130.02848,145.051 131.61648,147.574 134.88648,148.976 L130.02848,159.348 Z" fill="#FFFFFF" fill-rule="nonzero"></path>
            <line x1="139.93548" y1="240" x2="432.93548" y2="240" stroke="#00ceae"></line>
            <line x1="139.93548" y1="316" x2="432.93548" y2="316" stroke="#00ceae"></line>
            <line x1="139.93548" y1="278" x2="432.93548" y2="278" stroke="#00ceae" stroke-dasharray="3"></line>
            <path d="M163.47148,219.324 L163.47148,217.5 L168.20748,217.5 L168.20748,215.468 L161.35948,215.468 L161.35948,221.26 L164.54348,221.26 C165.77548,221.26 166.52748,221.948 166.52748,222.908 C166.52748,223.9 165.77548,224.652 164.68748,224.652 C163.59948,224.652 163.02348,224.124 162.78348,223.308 L160.55948,223.308 C160.84748,225.292 162.31948,226.588 164.68748,226.588 C167.05548,226.588 168.67148,225.004 168.67148,222.844 C168.67148,220.812 167.15148,219.324 164.84748,219.324 L163.47148,219.324 Z M170.55448,215.468 L170.55448,226.348 L174.79448,226.348 C178.13848,226.348 180.61848,224.028 180.61848,220.86 C180.61848,217.756 178.13848,215.468 174.79448,215.468 L170.55448,215.468 Z M172.87448,224.22 L172.87448,217.58 L174.79448,217.58 C176.73048,217.58 178.26648,219.036 178.26648,220.86 C178.26648,222.748 176.73048,224.22 174.79448,224.22 L172.87448,224.22 Z" fill="#00b49a" fill-rule="nonzero"></path>
            <polygon fill="#00b49a" fill-rule="nonzero" points="229.78348 215.468 227.35148 215.468 225.06348 222.796 222.55148 215.468 220.61548 215.468 218.10348 222.796 215.81548 215.468 213.38348 215.468 216.93548 226.412 219.20748 226.412 221.57548 219.484 223.95948 226.412 226.21548 226.412"></polygon>
            <polygon fill="#00b49a" fill-rule="nonzero" points="275.44748 215.468 273.79948 215.468 269.73548 221.868 265.67148 215.468 264.00748 215.468 264.00748 226.348 266.34348 226.348 266.31148 220.396 269.04748 224.7 269.04748 224.716 270.40748 224.716 273.12748 220.444 273.12748 226.348 275.44748 226.348"></polygon>
            <polygon fill="#00b49a" fill-rule="nonzero" points="319.03948 215.468 316.47948 215.468 313.55148 220.508 310.62348 215.468 308.06348 215.468 312.39948 222.844 312.39948 226.348 314.73548 226.348 314.73548 222.844"></polygon>
            <path d="M353.93548,241.5 C353.93548,227.417 365.35248,216 379.43548,216 C393.51848,216 404.93548,227.417 404.93548,241.5 L404.93548,333 L353.93548,333 L353.93548,241.5 Z" fill="#00b49a" fill-rule="nonzero"></path>
            <rect fill="#ecfcfa" fill-rule="nonzero" x="173.93548" y="84.348" width="122" height="93"></rect>
            <line x1="244.93548" y1="84.348" x2="217.93548" y2="179.348" stroke="#bbeee8" stroke-dasharray="2"></line>
            <line x1="252.93548" y1="84.348" x2="225.93548" y2="179.348" stroke="#bbeee8" stroke-dasharray="2"></line>
            <line x1="297.93548" y1="148.347" x2="173.93648" y2="147.935" stroke="#bbeee8" stroke-dasharray="2"></line>
            <line x1="297.93548" y1="117.732" x2="173.93648" y2="117.32" stroke="#bbeee8" stroke-dasharray="2"></line>
            <polygon fill="#1a3832" fill-rule="nonzero" points="219.83548 117.148 194.51548 128.548 194.51548 137.368 219.83548 148.768 219.83548 139.948 204.35548 132.928 219.83548 125.968"></polygon>
            <polygon fill="#1a3832" fill-rule="nonzero" points="232.71948 156.203 246.26948 108.348 237.93548 108.348 224.38548 156.203"></polygon>
            <polygon fill="#1a3832" fill-rule="nonzero" points="275.95048 137.368 275.95048 128.548 250.63048 117.148 250.63048 125.968 266.11048 132.928 250.63048 139.948 250.63048 148.768"></polygon>
            <circle fill="#FF2720" fill-rule="nonzero" cx="159.43548" cy="58.8477" r="36.5"></circle>
            <circle fill="#00b49a" fill-rule="nonzero" cx="379.93548" cy="174" r="25"></circle>
            <circle fill="#00b49a" fill-rule="nonzero" cx="379.93548" cy="102" r="25"></circle>
            <path d="M185.42048,245.469 L187.92048,235.469 L186.95048,235.226 L184.44948,245.226 L185.42048,245.469 Z M179.41848,247.474 L182.41948,235.973 L181.45148,235.721 L178.45148,247.221 L179.41848,247.474 Z M173.42048,249.968 L176.92048,235.968 L175.95048,235.726 L172.45048,249.726 L173.42048,249.968 Z M167.42048,252.469 L171.42048,236.469 L170.44948,236.226 L166.44948,252.226 L167.42048,252.469 Z M168.42048,238.469 L164.42048,254.469 L163.44948,254.226 L167.44948,238.226 L168.42048,238.469 Z M161.42048,256.469 L165.42048,240.469 L164.44948,240.226 L160.44948,256.226 L161.42048,256.469 Z M158.42048,258.469 L162.42048,242.469 L161.44948,242.226 L157.44948,258.226 L158.42048,258.469 Z M173.92048,236.469 L173.42048,238.469 L172.42048,242.469 L170.42048,250.469 L169.44948,250.226 L171.44948,242.226 L172.44948,238.226 L172.94948,236.226 L173.92048,236.469 Z M179.42048,236.469 L176.42048,248.469 L175.44948,248.226 L178.45048,236.226 L179.42048,236.469 Z M184.92148,235.963 L182.42148,246.463 L181.44848,246.232 L183.94948,235.732 L184.92148,235.963 Z M190.91948,235.975 L188.41848,245.475 L187.45148,245.22 L189.95148,235.72 L190.91948,235.975 Z M190.44948,244.226 L191.42048,244.469 L193.42048,236.469 L192.44948,236.226 L190.44948,244.226 Z M196.41848,236.976 L194.41848,244.476 L193.45148,244.219 L195.45248,236.719 L196.41848,236.976 Z M197.41348,243.995 L199.41348,237.495 L198.45748,237.201 L196.45748,243.701 L197.41348,243.995 Z M201.91348,237.995 L199.91348,244.495 L198.95748,244.201 L200.95748,237.701 L201.91348,237.995 Z M204.43548,239.848 L204.43548,238.848 L203.43548,238.848 L203.43548,239.774 L201.95648,244.704 L202.91448,244.991 L204.41448,239.991 L204.43548,239.921 L204.43548,239.848 Z M207.40948,240.506 L205.90948,245.006 L204.96148,244.689 L206.46148,240.189 L207.40948,240.506 Z M208.40948,246.006 L209.90948,241.506 L208.96148,241.189 L207.46148,245.689 L208.40948,246.006 Z" fill="#00c4a8"></path>
            <path d="M301.36048,307.898 L300.52948,309.057 L301.34148,309.64 L302.18748,308.461 L302.20148,308.441 L302.21348,308.42 L307.14648,299.907 L306.28148,299.406 L301.36048,307.898 Z M306.49748,310.107 L312.58848,299.036 L313.46448,299.518 L307.37348,310.589 L306.49748,310.107 Z M315.87248,298.366 L309.49648,310.109 L310.37448,310.586 L316.75148,298.844 L315.87248,298.366 Z M312.49948,310.104 L313.41448,308.468 L315.24348,305.197 L318.90348,298.654 L319.77648,299.142 L316.11648,305.685 L314.28648,308.956 L313.37148,310.592 L312.49948,310.104 Z M322.31548,297.505 L315.49548,310.11 L316.37548,310.586 L323.19548,297.981 L322.31548,297.505 Z M318.49648,309.608 L325.73148,296.348 L326.60948,296.827 L319.37448,310.087 L318.49648,309.608 Z M321.49648,309.608 L327.49648,298.609 L328.37448,299.088 L322.37448,310.087 L321.49648,309.608 Z M309.43248,299.226 L303.99748,309.107 L304.87448,309.589 L310.30848,299.707 L309.43248,299.226 Z M303.12248,299.598 L298.23248,308.188 L299.10148,308.683 L303.99148,300.093 L303.12248,299.598 Z M295.35148,307.35 L299.50148,300.1 L300.36948,300.597 L296.21848,307.847 L295.35148,307.35 Z M296.49948,300.103 L293.06448,306.224 L293.93648,306.713 L297.37148,300.593 L296.49948,300.103 Z M290.16848,305.444 L293.50148,299.6 L294.36948,300.096 L291.03648,305.94 L290.16848,305.444 Z M290.50848,299.088 L287.40648,304.172 L288.26048,304.693 L291.36248,299.608 L290.50848,299.088 Z M285.25848,302.547 L287.51648,299.076 L288.35448,299.621 L286.09648,303.093 L285.25848,302.547 Z M280.52948,298.852 L280.27048,299.818 L281.23648,300.077 L281.47948,299.17 L283.45048,295.619 L282.57648,295.134 L280.57448,298.739 L280.54548,298.792 L280.52948,298.852 Z" fill="#00c4a8"></path>
            <path d="M176.27348,296.519 L176.27348,292.572 L160.53648,292.572 L160.53648,296.519 L166.20948,296.519 L166.20948,310.348 L170.60048,310.348 L170.60048,296.519 L176.27348,296.519 Z M185.43848,305.198 L189.28048,310.348 L194.58748,310.348 L190.01248,304.335 C192.13048,303.264 193.41148,301.303 193.41148,298.82 C193.41148,294.977 190.45748,292.572 186.03948,292.572 L178.27548,292.572 L178.27548,310.348 L182.69348,310.348 L182.69348,305.198 L185.43848,305.198 Z M182.69348,301.225 L182.69348,296.467 L185.96148,296.467 C187.66048,296.467 188.99348,297.382 188.99348,298.82 C188.99348,300.284 187.66048,301.225 185.96148,301.225 L182.69348,301.225 Z M208.76048,307.289 L209.96248,310.348 L214.66748,310.348 L207.13948,292.468 L202.90448,292.468 L195.35048,310.348 L200.05548,310.348 L201.23148,307.289 L208.76048,307.289 Z M207.29648,303.525 L202.69548,303.525 L204.99548,297.617 L207.29648,303.525 Z M216.54248,292.572 L216.54248,310.348 L223.67848,310.348 C229.27248,310.348 233.27148,306.688 233.27148,301.408 C233.27148,296.206 229.27248,292.572 223.67848,292.572 L216.54248,292.572 Z M220.95948,306.374 L220.95948,296.545 L223.67848,296.545 C226.57948,296.545 228.77548,298.663 228.77548,301.408 C228.77548,304.231 226.57948,306.374 223.67848,306.374 L220.95948,306.374 Z M240.23348,296.415 L249.25148,296.415 L249.25148,292.572 L235.81548,292.572 L235.81548,310.348 L249.25148,310.348 L249.25148,306.505 L240.23348,306.505 L240.23348,303.42 L248.12748,303.42 L248.12748,299.656 L240.23348,299.656 L240.23348,296.415 Z" fill="#00b49a" fill-rule="nonzero"></path>
            <path d="M157.93548,257.689 C174.72148,246.764 209.75548,227.011 249.93548,275.802 C270.91948,301.283 301.49348,314.43 327.93548,307.521" stroke="#00b49a" stroke-width="3" opacity="0.7"></path>
            <path d="M157.93548,243.585 C174.79848,233.632 209.90648,226.262 250.14748,275.979 C271.26848,302.073 297.28148,305.744 327.93548,297.284" stroke="#FFFFFF" stroke-width="3"></path>
            <rect stroke="#FFFFFF" stroke-width="2" fill="#00dbb6" fill-rule="nonzero" x="211.93548" y="241.348" width="8" height="8"></rect>
            <rect stroke="#FFFFFF" stroke-width="2" fill="#00dbb6" fill-rule="nonzero" x="275.93548" y="293.348" width="8" height="8"></rect>
            <polygon fill="#FFD000" points="284.93548 118 284.93548 121 286.93548 121 286.93548 118 289.93548 118 289.93548 116 286.93548 116 286.93548 113 284.93548 113 284.93548 116 281.93548 116 281.93548 118"></polygon>
            <polygon fill="#FFD000" points="186.93548 118 186.93548 121 188.93548 121 188.93548 118 191.93548 118 191.93548 116 188.93548 116 188.93548 113 186.93548 113 186.93548 116 183.93548 116 183.93548 118"></polygon>
            <rect stroke="#c4eee8" stroke-width="1.91368" fill="#FFFFFF" fill-rule="nonzero" x="389.46348" y="20.3063" width="107.166" height="81.6505" rx="4.95684"></rect>
            <g transform="translate(402.752480, 33.383200)">
                <mask fill="white">
                    <use xlink:href="#path-1"></use>
                </mask>
                <g></g>
                <g mask="url(#mask-2)">
                    <g transform="translate(-49.292000, -21.050700)">
                        <line x1="76.651" y1="-7.10542736e-15" x2="4.259" y2="81.3315" stroke="#ecfcfa" stroke-width="1.91368"></line>
                        <line x1="72.392" y1="-7.10542736e-15" x2="0" y2="81.3315" stroke="#ecfcfa" stroke-width="1.91368"></line>
                        <line x1="81.761" y1="-7.10542736e-15" x2="9.369" y2="81.3315" stroke="#ecfcfa" stroke-width="1.91368"></line>
                        <line x1="86.871" y1="-7.10542736e-15" x2="14.479" y2="81.3315" stroke="#ecfcfa" stroke-width="1.91368"></line>
                        <line x1="91.981" y1="-7.10542736e-15" x2="19.589" y2="81.3315" stroke="#ecfcfa" stroke-width="1.91368"></line>
                        <line x1="97.091" y1="-7.10542736e-15" x2="24.699" y2="81.3315" stroke="#ecfcfa" stroke-width="1.91368"></line>
                        <line x1="102.201" y1="-7.10542736e-15" x2="29.809" y2="81.3315" stroke="#ecfcfa" stroke-width="1.91368"></line>
                        <line x1="107.311" y1="-7.10542736e-15" x2="34.919" y2="81.3315" stroke="#ecfcfa" stroke-width="1.91368"></line>
                        <line x1="112.421" y1="-7.10542736e-15" x2="40.029" y2="81.3315" stroke="#ecfcfa" stroke-width="1.91368"></line>
                        <line x1="117.531" y1="-7.10542736e-15" x2="45.139" y2="81.3315" stroke="#ecfcfa" stroke-width="1.91368"></line>
                        <line x1="122.641" y1="-7.10542736e-15" x2="50.249" y2="81.3315" stroke="#ecfcfa" stroke-width="1.91368"></line>
                        <line x1="127.751" y1="-7.10542736e-15" x2="55.359" y2="81.3315" stroke="#ecfcfa" stroke-width="1.91368"></line>
                        <line x1="132.861" y1="-7.10542736e-15" x2="60.469" y2="81.3315" stroke="#ecfcfa" stroke-width="1.91368"></line>
                        <line x1="137.971" y1="-7.10542736e-15" x2="65.579" y2="81.3315" stroke="#ecfcfa" stroke-width="1.91368"></line>
                        <line x1="143.081" y1="-7.10542736e-15" x2="70.689" y2="81.3315" stroke="#ecfcfa" stroke-width="1.91368"></line>
                        <line x1="148.191" y1="-7.10542736e-15" x2="75.799" y2="81.3315" stroke="#ecfcfa" stroke-width="1.91368"></line>
                        <line x1="153.301" y1="-7.10542736e-15" x2="80.909" y2="81.3315" stroke="#ecfcfa" stroke-width="1.91368"></line>
                        <line x1="158.411" y1="-7.10542736e-15" x2="86.019" y2="81.3315" stroke="#ecfcfa" stroke-width="1.91368"></line>
                        <line x1="163.521" y1="-7.10542736e-15" x2="91.129" y2="81.3315" stroke="#ecfcfa" stroke-width="1.91368"></line>
                        <line x1="168.631" y1="-7.10542736e-15" x2="96.239" y2="81.3315" stroke="#ecfcfa" stroke-width="1.91368"></line>
                        <line x1="173.741" y1="-7.10542736e-15" x2="101.349" y2="81.3315" stroke="#ecfcfa" stroke-width="1.91368"></line>
                        <line x1="178.851" y1="-7.10542736e-15" x2="106.459" y2="81.3315" stroke="#ecfcfa" stroke-width="1.91368"></line>
                        <line x1="183.961" y1="-7.10542736e-15" x2="111.569" y2="81.3315" stroke="#ecfcfa" stroke-width="1.91368"></line>
                        <line x1="189.071" y1="-7.10542736e-15" x2="116.679" y2="81.3315" stroke="#ecfcfa" stroke-width="1.91368"></line>
                        <line x1="194.181" y1="-7.10542736e-15" x2="121.789" y2="81.3315" stroke="#ecfcfa" stroke-width="1.91368"></line>
                        <line x1="50.249" y1="58.8992" x2="130.211" y2="58.8992" stroke="#d2f5f0" stroke-width="1.48842" stroke-linecap="round" stroke-linejoin="round"></line>
                        <line x1="68.702" y1="21.6885" x2="68.702" y2="75.9095" stroke="#d2f5f0" stroke-width="1.48842" stroke-linecap="round" stroke-linejoin="round"></line>
                    </g>
                </g>
            </g>
            <rect stroke="#ecfcfa" stroke-width="1.91368" x="402.75248" y="33.3832" width="81.1189" height="55.4968" rx="4.78421"></rect>
            <path d="M426.14148,0 C424.02848,0 422.31448,1.7136 422.31448,3.8274 L422.31448,19.3494 L498.01148,19.3494 L498.01148,61.6632 L513.10848,61.6632 C515.22248,61.6632 516.93548,59.9496 516.93548,57.8358 L516.93548,3.8274 C516.93548,1.7136 515.22248,0 513.10848,0 L426.14148,0 Z" fill="#e8faf8"></path>
            <rect stroke="#c4f0ea" stroke-width="2.87053" x="423.74948" y="1.4353" width="91.7505" height="58.7926"></rect>
            <rect stroke="#c4eee8" stroke-width="1.87097" fill="#FFFFFF" fill-rule="nonzero" x="-1.42108547e-14" y="250.71" width="117.871" height="86.0645" rx="4.93548"></rect>
            <rect fill="#ecfcfa" fill-rule="nonzero" x="8.93548" y="261" width="99" height="29"></rect>
            <rect fill="#ecfcfa" fill-rule="nonzero" x="8.93548" y="298" width="100" height="28"></rect>
            <polygon fill="#FFFFFF" points="66.41948 232 25.25828 232 25.25828 271.29 39.65228 271.29 45.83888 277.839 52.02558 271.29 66.41948 271.29"></polygon>
            <g transform="translate(23.258280, 230.000000)">
                <mask fill="white">
                    <use xlink:href="#path-3"></use>
                </mask>
                <g></g>
                <path d="M2,2 L2,0.129 L0.129,0.129 L0.129,2 L2,2 Z M43.1612,2 L45.0322,2 L45.0322,0.129 L43.1612,0.129 L43.1612,2 Z M2,41.29 L0.129,41.29 L0.129,43.161 L2,43.161 L2,41.29 Z M16.394,41.29 L17.754,40.005 L17.2002,39.419 L16.394,39.419 L16.394,41.29 Z M22.5806,47.839 L21.2206,49.124 L22.5806,50.563 L23.9406,49.124 L22.5806,47.839 Z M28.7673,41.29 L28.7673,39.419 L27.961,39.419 L27.4073,40.005 L28.7673,41.29 Z M43.1612,41.29 L43.1612,43.161 L45.0322,43.161 L45.0322,41.29 L43.1612,41.29 Z M2,3.871 L43.1612,3.871 L43.1612,0.129 L2,0.129 L2,3.871 Z M3.8709,41.29 L3.8709,2 L0.129,2 L0.129,41.29 L3.8709,41.29 Z M16.394,39.419 L2,39.419 L2,43.161 L16.394,43.161 L16.394,39.419 Z M23.9406,46.554 L17.754,40.005 L15.0339,42.575 L21.2206,49.124 L23.9406,46.554 Z M27.4073,40.005 L21.2206,46.554 L23.9406,49.124 L30.1273,42.575 L27.4073,40.005 Z M43.1612,39.419 L28.7673,39.419 L28.7673,43.161 L43.1612,43.161 L43.1612,39.419 Z M41.2903,2 L41.2903,41.29 L45.0322,41.29 L45.0322,2 L41.2903,2 Z" fill="#c4eee8" fill-rule="nonzero" mask="url(#mask-4)"></path>
                <mask fill="white">
                    <use xlink:href="#path-5"></use>
                </mask>
                <g></g>
            </g>
            <rect fill="#e8faf8" fill-rule="nonzero" x="28.99998" y="235.742" width="33.6774" height="31.8065"></rect>
            <circle stroke="#d2f5f0" stroke-width="1.4" fill="#FFFFFF" fill-rule="nonzero" cx="421.93548" cy="72" r="4.7"></circle>
        </g>
    </g>
</svg>
