<?xml version="1.0" encoding="UTF-8"?>
<svg width="425px" height="346px" viewBox="0 0 425 346" version="1.1" xmlns="http://www.w3.org/2000/svg" xmlns:xlink="http://www.w3.org/1999/xlink">
    <defs>
        <linearGradient x1="50%" y1="14.4960248%" x2="50%" y2="100.310559%">
            <stop stop-color="#c4f0ea" offset="0%"></stop>
            <stop stop-color="#c4f0ea" stop-opacity="0" offset="100%"></stop>
        </linearGradient>
        <linearGradient x1="100%" y1="-15.9390416%" x2="100%" y2="100.003002%">
            <stop stop-color="#7cccbe" stop-opacity="0.56" offset="0%"></stop>
            <stop stop-color="#E6EBF0" stop-opacity="0" offset="100%"></stop>
        </linearGradient>
        <circle cx="75" cy="75" r="75"></circle>
    </defs>
    <g stroke="none" stroke-width="1" fill="none" fill-rule="evenodd">
        <g transform="translate(1.000000, 1.000000)">
            <path d="M63,53 C63,35.8792 76.8792,22 94,22 L392,22 C409.121,22 423,35.8792 423,53 L423,344 L63,344 L63,53 Z" stroke="url(#linearGradient-1)" stroke-width="2" fill="#FFFFFF" fill-rule="nonzero"></path>
            <path d="M133,279 C133,276.791 134.791,275 137,275 L259,275 C261.209,275 263,276.791 263,279 L263,295 C263,297.209 261.209,299 259,299 L137,299 C134.791,299 133,297.209 133,295 L133,279 Z" fill="#e8faf8" fill-rule="nonzero"></path>
            <path d="M88,279 C88,276.791 89.7909,275 92,275 L112,275 C114.209,275 116,276.791 116,279 L116,295 C116,297.209 114.209,299 112,299 L92,299 C89.7909,299 88,297.209 88,295 L88,279 Z" fill="#e8faf8" fill-rule="nonzero"></path>
            <polygon fill="url(#linearGradient-2)" fill-rule="nonzero" points="359.606 195.832 369 181.712 378.092 190.902 383 178.011 390.402 181.041 398 158.304 398 254.999 88 254.999 88 210.156 98.637 198.294 104.856 171.516 111 193.367 123 174.942 133.559 177.476 137.839 167.89 141.5 155.062 146.303 173.645 153.413 182.508 159.101 188.436 169.352 212.427 173.321 206.41 177.587 194.08 181.853 195.832 187.541 179.896 194.651 184.865 202.343 177.131 210.294 184.865 215.982 193.367 223.092 181.041 229.505 179.896 233.046 174.942 237.312 174.942 243 164.989 251.532 195.832 255.798 188.436 260.064 212.427 271.44 218.02 279.972 198.298 287.083 205.693 295.5 217.245 306.991 210.624 321.5 223.168 326.899 198.298 335.431 181.041 340.5 172.089 345.5 175.79 349.651 185.971"></polygon>
            <polyline stroke="#7cccbe" stroke-width="2" opacity="0.8" stroke-linecap="square" stroke-linejoin="round" points="398 158.951 390.402 181.636 382.804 177.912 378.092 191.025 369.127 181.636 359.606 195.719 349.651 186.33 345.385 175.814 340.631 172.333 335.431 181.636 326.899 198.067 321.467 223.105 306.991 209.804 295.615 216.846 287.083 205.109 279.972 198.067 271.44 216.846 260.064 211.521 255.798 188.677 251.532 195.719 243 166.352 237.312 175.828 233.046 175.828 229.505 180.545 223.092 181.636 215.982 193.372 210.294 185.277 202.343 177.912 194.651 185.277 187.541 180.545 181.853 195.719 177.587 194.051 173.321 205.791 169.352 211.521 159.101 188.677 153.413 183.033 146.303 174.593 141.186 154 137.839 169.114 133.559 178.241 122.951 174.591 110.794 193.372 104.856 172.566 98.637 201.041 88 210.944"></polyline>
            <line x1="398" y1="222.671" x2="88" y2="222.671" stroke="#86cfc3" stroke-width="0.5" opacity="0.3" stroke-linecap="square" stroke-linejoin="round" stroke-dasharray="3"></line>
            <line x1="398" y1="159.63" x2="88" y2="159.63" stroke="#86cfc3" stroke-width="0.5" opacity="0.3" stroke-linecap="square" stroke-linejoin="round" stroke-dasharray="3"></line>
            <path d="M335.361,73.8711 L328.76,73.8711 L328.76,69.8477 L335,69.8477 L335,67.8457 L328.76,67.8457 L328.76,64.0371 L335.361,64.0371 L335.361,61.9082 L326.24,61.9082 L326.24,76 L335.361,76 L335.361,73.8711 Z M341.182,65.4727 C338.545,65.4727 336.875,67.5332 336.875,70.8145 C336.875,74.1055 338.535,76.166 341.133,76.166 C342.627,76.166 343.838,75.4043 344.375,74.252 L344.434,74.252 L344.434,79.4082 L346.865,79.4082 L346.865,65.6484 L344.482,65.6484 L344.482,67.4355 L344.434,67.4355 C343.848,66.2539 342.686,65.4727 341.182,65.4727 Z M341.875,74.1738 C340.322,74.1738 339.365,72.8945 339.365,70.8242 C339.365,68.7539 340.322,67.4746 341.875,67.4746 C343.408,67.4746 344.434,68.793 344.434,70.8242 C344.434,72.8652 343.408,74.1738 341.875,74.1738 Z M358.027,65.6484 L355.596,65.6484 L355.596,71.6348 C355.596,73.1387 354.727,74.1348 353.32,74.1348 C351.953,74.1348 351.23,73.334 351.23,71.8496 L351.23,65.6484 L348.799,65.6484 L348.799,72.3379 C348.799,74.7305 350.225,76.1855 352.471,76.1855 C354.043,76.1855 355.088,75.4629 355.635,74.2031 L355.684,74.2031 L355.684,76 L358.027,76 L358.027,65.6484 Z M361.289,64.0859 C362.031,64.0859 362.617,63.4902 362.617,62.7676 C362.617,62.0352 362.031,61.4492 361.289,61.4492 C360.547,61.4492 359.951,62.0352 359.951,62.7676 C359.951,63.4902 360.547,64.0859 361.289,64.0859 Z M360.078,76 L362.51,76 L362.51,65.6484 L360.078,65.6484 L360.078,76 Z M365.225,63.2266 L365.225,65.6484 L363.74,65.6484 L363.74,67.5234 L365.225,67.5234 L365.225,73.2461 C365.225,75.2578 366.104,76.0488 368.34,76.0488 C368.857,76.0488 369.336,76.0098 369.6,75.9512 L369.6,74.0957 C369.443,74.125 369.131,74.1445 368.906,74.1445 C368.047,74.1445 367.656,73.7539 367.656,72.9043 L367.656,67.5234 L369.609,67.5234 L369.609,65.6484 L367.656,65.6484 L367.656,63.2266 L365.225,63.2266 Z M372.432,79.8477 C374.795,79.8477 375.938,78.9785 376.816,76.4102 L380.566,65.6484 L378.008,65.6484 L375.566,73.9297 L375.518,73.9297 L373.086,65.6484 L370.43,65.6484 L374.111,76.0098 C374.121,76.0391 373.965,76.5566 373.965,76.5859 C373.701,77.543 373.184,77.9238 372.178,77.9238 C372.031,77.9238 371.602,77.9141 371.475,77.8848 L371.475,79.8086 C371.602,79.8379 372.285,79.8477 372.432,79.8477 Z M385.156,76 L387.9,76 L391.26,70.8242 L391.338,70.8242 L394.658,76 L397.559,76 L392.939,68.998 L392.939,68.9297 L397.637,61.9082 L394.814,61.9082 L391.514,67.2012 L391.436,67.2012 L388.174,61.9082 L385.195,61.9082 L389.746,68.8711 L389.746,68.9395 L385.156,76 Z" fill="#7cccbe" fill-rule="nonzero"></path>
            <path d="M234.328,112.078 L236.906,112.078 C239.641,112.078 241.25,113.297 241.234,115.484 C241.234,117.391 239.609,118.703 237.25,118.703 C234.766,118.703 233.141,117.453 232.984,115.609 L228.484,115.609 C228.688,119.75 232.156,122.5 237.25,122.5 C242.484,122.5 246.031,119.781 246.031,115.688 C246.031,112.594 243.844,110.609 240.5,110.297 L240.5,110.203 C243.156,109.656 245.203,107.797 245.203,104.922 C245.203,101.312 241.984,98.953 237.219,98.953 C232.5,98.953 229.219,101.594 228.984,105.719 L233.312,105.719 C233.453,103.766 235,102.578 237.219,102.578 C239.469,102.578 240.734,103.75 240.734,105.594 C240.734,107.438 239.203,108.719 236.844,108.719 L234.328,108.719 L234.328,112.078 Z M254.672,122 L259.344,122 L259.344,99.453 L254.656,99.453 L248.828,103.5 L248.828,107.688 L254.578,103.781 L254.672,103.781 L254.672,122 Z M273.062,122.5 C278.234,122.5 281.781,119.266 281.781,114.5 C281.781,110.203 278.703,107.109 274.406,107.109 C272.125,107.109 270.266,108.031 269.328,109.547 L269.234,109.547 L269.781,103.203 L280.422,103.203 L280.422,99.453 L266.031,99.453 L265,112.688 L269.109,112.688 C269.875,111.328 271.281,110.484 273.094,110.484 C275.562,110.484 277.281,112.188 277.281,114.609 C277.281,117.062 275.562,118.766 273.078,118.766 C270.906,118.766 269.234,117.484 268.969,115.531 L264.609,115.531 C264.734,119.625 268.234,122.5 273.062,122.5 Z M287.109,122.188 C288.5,122.188 289.625,121.062 289.625,119.672 C289.625,118.266 288.5,117.156 287.109,117.156 C285.703,117.156 284.594,118.266 284.594,119.672 C284.594,121.062 285.703,122.188 287.109,122.188 Z M297.141,122 L301.812,122 L301.812,99.453 L297.125,99.453 L291.297,103.5 L291.297,107.688 L297.047,103.781 L297.141,103.781 L297.141,122 Z M315.109,122.5 C320.969,122.5 324.516,118 324.516,110.531 C324.516,102.297 320.078,98.938 315.109,98.938 C310.078,98.938 306.422,102.266 306.422,106.938 C306.422,111.328 309.719,114.297 313.906,114.297 C316.859,114.297 319.094,112.828 319.906,110.641 L320,110.641 C320.031,115.484 318.516,118.766 315.125,118.766 C313.234,118.766 311.844,117.906 311.344,116.297 L306.688,116.297 C307.281,119.953 310.688,122.5 315.109,122.5 Z M315.125,110.797 C312.766,110.797 311.016,109.109 311.016,106.75 C311.016,104.469 312.844,102.703 315.172,102.703 C317.484,102.703 319.312,104.5 319.312,106.828 C319.312,109.141 317.5,110.797 315.125,110.797 Z M327.016,106.312 L331.391,106.312 C331.391,104.141 333.094,102.625 335.344,102.625 C337.375,102.625 338.766,104 338.766,105.812 C338.766,107.375 338.125,108.453 335.266,111.203 L327.281,118.766 L327.281,122 L343.672,122 L343.672,118.25 L333.453,118.25 L333.453,118.156 L338.188,113.625 C342,109.984 343.359,108.281 343.359,105.516 C343.359,101.766 340.172,98.953 335.344,98.953 C330.453,98.953 327.016,101.969 327.016,106.312 Z" fill="#7cccbe" fill-rule="nonzero"></path>
            <path d="M363.148,105.185 C365.521,105.185 366.915,103.195 366.915,100.051 C366.915,96.9268 365.507,94.9512 363.148,94.9512 C360.79,94.9512 359.368,96.9336 359.368,100.058 C359.368,103.202 360.77,105.185 363.148,105.185 Z M363.148,103.899 C361.72,103.899 360.92,102.443 360.92,100.058 C360.92,97.7061 361.74,96.2363 363.148,96.2363 C364.557,96.2363 365.37,97.6992 365.37,100.058 C365.37,102.45 364.57,103.899 363.148,103.899 Z M369.048,105.075 C369.547,105.075 369.943,104.679 369.943,104.18 C369.943,103.681 369.547,103.284 369.048,103.284 C368.549,103.284 368.152,103.681 368.152,104.18 C368.152,104.679 368.549,105.075 369.048,105.075 Z M376.396,105 L377.866,105 L377.866,103.038 L379.227,103.038 L379.227,101.753 L377.866,101.753 L377.866,95.1357 L375.651,95.1357 C373.437,98.349 372.309,100.119 371.461,101.705 L371.461,103.038 L376.396,103.038 L376.396,105 Z M372.883,101.732 C373.669,100.331 374.674,98.772 376.383,96.3252 L376.41,96.3252 L376.41,101.773 L372.883,101.773 L372.883,101.732 Z M383.95,105.185 C386.131,105.185 387.683,104.009 387.683,102.334 C387.683,101.083 386.794,100.092 385.495,99.805 L385.495,99.771 C386.609,99.442 387.313,98.608 387.313,97.5762 C387.313,96.0518 385.912,94.9512 383.95,94.9512 C381.995,94.9512 380.573,96.0586 380.573,97.5693 C380.573,98.615 381.291,99.456 382.405,99.771 L382.405,99.805 C381.106,100.085 380.218,101.076 380.218,102.334 C380.218,104.002 381.763,105.185 383.95,105.185 Z M383.95,99.258 C382.856,99.258 382.098,98.615 382.098,97.7129 C382.098,96.8037 382.856,96.168 383.95,96.168 C385.037,96.168 385.803,96.8037 385.803,97.7129 C385.803,98.615 385.03,99.258 383.95,99.258 Z M383.95,103.954 C382.692,103.954 381.797,103.229 381.797,102.225 C381.797,101.213 382.692,100.488 383.95,100.488 C385.208,100.488 386.097,101.206 386.097,102.225 C386.097,103.229 385.208,103.954 383.95,103.954 Z M392.639,105.185 C395.011,105.185 396.405,103.195 396.405,100.051 C396.405,96.9268 394.997,94.9512 392.639,94.9512 C390.28,94.9512 388.858,96.9336 388.858,100.058 C388.858,103.202 390.26,105.185 392.639,105.185 Z M392.639,103.899 C391.21,103.899 390.41,102.443 390.41,100.058 C390.41,97.7061 391.23,96.2363 392.639,96.2363 C394.047,96.2363 394.86,97.6992 394.86,100.058 C394.86,102.45 394.061,103.899 392.639,103.899 Z" fill="#7cccbe" fill-rule="nonzero"></path>
            <path d="M362.357,126.185 C364.729,126.185 366.124,124.195 366.124,121.051 C366.124,117.927 364.716,115.951 362.357,115.951 C359.999,115.951 358.577,117.934 358.577,121.058 C358.577,124.202 359.979,126.185 362.357,126.185 Z M362.357,124.899 C360.929,124.899 360.129,123.443 360.129,121.058 C360.129,118.706 360.949,117.236 362.357,117.236 C363.766,117.236 364.579,118.699 364.579,121.058 C364.579,123.45 363.779,124.899 362.357,124.899 Z M368.257,126.075 C368.756,126.075 369.152,125.679 369.152,125.18 C369.152,124.681 368.756,124.284 368.257,124.284 C367.758,124.284 367.361,124.681 367.361,125.18 C367.361,125.679 367.758,126.075 368.257,126.075 Z M370.779,119.041 L372.229,119.041 C372.229,117.988 373.083,117.216 374.211,117.216 C375.257,117.216 375.94,117.927 375.94,118.836 C375.94,119.608 375.64,120.114 374.341,121.44 L370.861,124.947 L370.861,126 L377.608,126 L377.608,124.708 L372.912,124.708 L372.912,124.674 L375.154,122.425 C376.918,120.661 377.451,119.875 377.451,118.74 C377.451,117.188 376.146,115.951 374.211,115.951 C372.229,115.951 370.779,117.25 370.779,119.041 Z M382.496,126.185 C384.629,126.185 386.119,124.783 386.119,122.767 C386.119,120.88 384.759,119.513 382.872,119.513 C381.901,119.513 381.081,119.889 380.637,120.552 L380.603,120.552 L380.903,117.428 L385.545,117.428 L385.545,116.136 L379.666,116.136 L379.181,121.823 L380.521,121.823 C380.938,121.099 381.642,120.723 382.523,120.723 C383.754,120.723 384.622,121.591 384.622,122.808 C384.622,124.038 383.761,124.906 382.51,124.906 C381.409,124.906 380.575,124.236 380.466,123.259 L379.003,123.259 C379.092,124.981 380.527,126.185 382.496,126.185 Z M389.086,120.832 C390.398,120.832 391.26,119.875 391.26,118.419 C391.26,116.949 390.392,116.006 389.086,116.006 C387.78,116.006 386.905,116.949 386.905,118.419 C386.905,119.882 387.78,120.832 389.086,120.832 Z M389.523,126 L396.318,116.136 L395.081,116.136 L388.272,126 L389.523,126 Z M389.086,119.896 C388.437,119.896 387.999,119.342 387.999,118.419 C387.999,117.496 388.437,116.949 389.086,116.949 C389.742,116.949 390.173,117.496 390.173,118.419 C390.173,119.342 389.735,119.896 389.086,119.896 Z M395.512,126.123 C396.817,126.123 397.686,125.166 397.686,123.71 C397.686,122.24 396.817,121.297 395.512,121.297 C394.206,121.297 393.331,122.24 393.331,123.71 C393.331,125.173 394.199,126.123 395.512,126.123 Z M395.512,125.187 C394.862,125.187 394.418,124.633 394.418,123.71 C394.418,122.787 394.862,122.24 395.512,122.24 C396.161,122.24 396.599,122.787 396.599,123.71 C396.599,124.633 396.161,125.187 395.512,125.187 Z" fill="#7cccbe" fill-rule="nonzero"></path>
            <circle stroke="#c4f0ea" stroke-width="2" fill="#FFFFFF" fill-rule="nonzero" cx="76" cy="76" r="76"></circle>
            <g transform="translate(1.000000, 1.000000)">
                <mask fill="white">
                    <use xlink:href="#path-3"></use>
                </mask>
                <g></g>
                <g mask="url(#mask-4)">
                    <g transform="translate(6.249020, 10.000000)">
                        <line x1="27.21348" y1="0" x2="27.21348" y2="135" stroke="#c4f0ea" stroke-width="1.92308" fill="none" opacity="0.5"></line>
                        <line x1="109.71198" y1="0.248" x2="109.71198" y2="135.248" stroke="#c4f0ea" stroke-width="1.92308" fill="none" opacity="0.5"></line>
                        <line x1="-1.77635684e-15" y1="99.038" x2="134.99998" y2="99.038" stroke="#c4f0ea" stroke-width="1.92308" fill="none" opacity="0.5"></line>
                        <line x1="-1.77635684e-15" y1="31.5443" x2="134.99998" y2="31.5443" stroke="#c4f0ea" stroke-width="1.92308" fill="none" opacity="0.5"></line>
                        <rect stroke="#c4f0ea" stroke-width="1.63291" fill="#FFFFFF" fill-rule="nonzero" x="27.06838" y="30.8204" width="83.3671" height="68.3671" rx="9.18354"></rect>
                        <rect stroke="none" fill="#e8faf8" fill-rule="nonzero" x="58.74998" y="45.0078" width="30" height="10"></rect>
                        <rect stroke="none" fill="#e8faf8" fill-rule="nonzero" x="58.74998" y="60.0059" width="17.5" height="10"></rect>
                        <polygon stroke="none" fill="#e8faf8" fill-rule="nonzero" points="58.74998 75.0039 96.24998 75.0039 96.24998 85.0039 58.74998 85.0039"></polygon>
                        <polygon stroke="none" fill="#FFC800" fill-rule="nonzero" points="111.75098 80 115.53198 90.219 125.75098 94 115.53198 97.781 111.75098 108 107.96998 97.781 97.75098 94 107.96998 90.219"></polygon>
                    </g>
                </g>
            </g>
            <polygon fill="#26e2c5" fill-rule="nonzero" points="65.8581 51.1346 79.2623 51.1346 47.241 85 57.9148 61.1536 46 61.1536 57.9148 33 81 33"></polygon>
            <path d="M354,287 C354,278.163 346.837,271 338,271 C329.163,271 322,278.163 322,287 C322,295.837 329.163,303 338,303 C346.837,303 354,295.837 354,287 Z" fill="#1a3832" fill-rule="nonzero"></path>
            <path d="M398,287 C398,278.163 390.837,271 382,271 C373.163,271 366,278.163 366,287 C366,295.837 373.163,303 382,303 C390.837,303 398,295.837 398,287 Z" fill="#26e2c5" fill-rule="nonzero"></path>
        </g>
    </g>
</svg>
