<?xml version="1.0" encoding="UTF-8"?>
<svg width="397px" height="242px" viewBox="0 0 397 242" version="1.1" xmlns="http://www.w3.org/2000/svg" xmlns:xlink="http://www.w3.org/1999/xlink">
    <defs>
        <rect x="0" y="2.84217094e-14" width="69.299" height="76.8785"></rect>
        <rect x="0" y="0" width="38.9807" height="76.8785"></rect>
        <rect x="0" y="-7.10542736e-15" width="38.9807" height="80.1269"></rect>
    </defs>
    <g stroke="none" stroke-width="1" fill="none" fill-rule="evenodd">
        <g transform="translate(2.000000, 2.000000)">
            <g opacity="0.4" transform="translate(295.602990, 131.580800)">
                <g>
                    <mask fill="white">
                        <use xlink:href="#path-1"></use>
                    </mask>
                    <g></g>
                    <path d="M-143.699,163.382 L-44.952,-8.064 L-43.329,-7.129 L-142.076,164.317 L-143.699,163.382 Z M-86.168,-8.064 L-184.915,163.382 L-183.292,164.317 L-84.545,-7.129 L-86.168,-8.064 Z M-75.865,-8.064 L-174.612,163.382 L-172.988,164.317 L-74.241,-7.129 L-75.865,-8.064 Z M-164.307,163.382 L-65.56,-8.064 L-63.937,-7.129 L-162.684,164.317 L-164.307,163.382 Z M-55.256,-8.064 L-154.003,163.382 L-152.38,164.317 L-53.633,-7.129 L-55.256,-8.064 Z M-34.648,-8.064 L-133.395,163.382 L-131.772,164.317 L-33.025,-7.129 L-34.648,-8.064 Z M-123.091,163.382 L-24.344,-8.064 L-22.721,-7.129 L-121.468,164.317 L-123.091,163.382 Z M-14.04,-8.064 L-112.788,163.382 L-111.164,164.317 L-12.417,-7.129 L-14.04,-8.064 Z M-102.483,163.382 L-3.736,-8.064 L-2.112,-7.129 L-100.86,164.317 L-102.483,163.382 Z M6.568,-8.064 L-92.179,163.382 L-90.556,164.317 L8.191,-7.129 L6.568,-8.064 Z M-81.875,163.382 L16.872,-8.064 L18.496,-7.129 L-80.251,164.317 L-81.875,163.382 Z M27.176,-8.064 L-71.571,163.382 L-69.947,164.317 L28.8,-7.129 L27.176,-8.064 Z M-61.267,163.382 L37.48,-8.064 L39.103,-7.129 L-59.644,164.317 L-61.267,163.382 Z M47.784,-8.064 L-50.963,163.382 L-49.339,164.317 L49.408,-7.129 L47.784,-8.064 Z M-40.659,163.382 L58.088,-8.064 L59.712,-7.129 L-39.035,164.317 L-40.659,163.382 Z M68.392,-8.064 L-30.355,163.382 L-28.731,164.317 L70.016,-7.129 L68.392,-8.064 Z M-20.051,163.382 L78.696,-8.064 L80.32,-7.129 L-18.427,164.317 L-20.051,163.382 Z M89.001,-8.064 L-9.747,163.382 L-8.123,164.317 L90.624,-7.129 L89.001,-8.064 Z M0.557,163.382 L99.304,-8.064 L100.928,-7.129 L2.181,164.317 L0.557,163.382 Z M109.608,-8.064 L10.861,163.382 L12.485,164.317 L111.232,-7.129 L109.608,-8.064 Z M21.165,163.382 L119.912,-8.064 L121.536,-7.129 L22.789,164.317 L21.165,163.382 Z M130.217,-8.064 L31.47,163.382 L33.093,164.317 L131.84,-7.129 L130.217,-8.064 Z" fill="#a6d6ce" mask="url(#mask-2)"></path>
                </g>
            </g>
            <line x1="0" y1="25.3717" x2="393.57799" y2="25.3758" stroke="#82ccbf" stroke-width="2.16559" opacity="0.7" stroke-linecap="square" stroke-linejoin="round" stroke-dasharray="5.35"></line>
            <line x1="0" y1="206.8308" x2="392.96099" y2="206.8348" stroke="#82ccbf" stroke-width="2.16559" opacity="0.7" stroke-linecap="square" stroke-linejoin="round" stroke-dasharray="5.35"></line>
            <line x1="0" y1="128.4198" x2="393.05499" y2="128.4198" stroke="#82ccbf" stroke-width="2.16559" opacity="0.7" stroke-linecap="square" stroke-linejoin="round" stroke-dasharray="5.35"></line>
            <line x1="0" y1="105.6688" x2="392.44299" y2="105.6688" stroke="#82ccbf" stroke-width="2.16559" opacity="0.7" stroke-linecap="square" stroke-linejoin="round" stroke-dasharray="5.35"></line>
            <line x1="40.47639" y1="0.0001" x2="40.47449" y2="238.5108" stroke="#82ccbf" stroke-width="2.16559" opacity="0.7" stroke-linecap="square" stroke-linejoin="round" stroke-dasharray="5.35"></line>
            <line x1="365.70499" y1="0" x2="365.70299" y2="238.5108" stroke="#82ccbf" stroke-width="2.16559" opacity="0.7" stroke-linecap="square" stroke-linejoin="round" stroke-dasharray="5.35"></line>
            <rect stroke="#009e88" stroke-width="3.24839" fill="#00dbb6" fill-rule="nonzero" x="41.68739" y="26.0086" width="175.413" height="180.827"></rect>
            <path d="M116.68699,112.1458 L139.95699,112.1458 C146.42799,112.1458 151.59199,106.8608 151.59199,100.4328 L151.59199,78.4521 C151.59199,72.1965 146.27499,67.5157 139.95699,66.4587 C132.15699,65.186 123.68099,65.2507 116.68699,66.4803 C106.83899,68.2059 105.05299,71.8083 105.05299,78.4737 L105.05299,87.253 L128.34399,87.253 L128.34399,90.1868 L96.31599,90.1868 C89.53949,90.1868 83.61319,94.2208 81.76119,101.8778 C79.62599,110.6578 79.53889,115.0538 81.76119,124.2208 C83.41709,131.0378 87.36069,135.9128 94.13679,135.9128 L102.13299,135.9128 L102.13299,125.3858 C102.13299,117.7718 108.77799,112.1458 116.68699,112.1458 Z M115.22799,81.3857 C112.80899,81.3857 110.84799,79.4228 110.84799,77.0068 C110.86999,74.5693 112.80899,72.6064 115.22799,72.6064 C117.62399,72.6064 119.60699,74.5909 119.60699,77.0068 C119.60699,79.4228 117.64599,81.3857 115.22799,81.3857 Z" fill="#FFFFFF" fill-rule="nonzero"></path>
            <path d="M174.70999,103.3008 C173.03599,96.5828 169.86199,91.5178 163.10099,91.5178 L154.38299,91.5178 L154.38299,101.8228 C154.38299,109.8228 147.59999,115.4788 139.85999,115.4788 L116.64099,115.4788 C110.29299,115.4788 105.03099,120.9138 105.03099,127.2838 L105.03099,149.4138 C105.03099,155.7188 110.50999,159.4138 116.64099,161.2188 C123.98899,163.3708 131.05499,163.7618 139.85999,161.2188 C145.70799,159.5228 151.46899,156.1098 151.46899,149.4138 L151.46899,140.5658 L128.27199,140.5658 L128.27199,137.6098 L163.10099,137.6098 C169.86199,137.6098 172.36199,132.8918 174.70999,125.8268 C177.14499,118.5438 177.03599,112.6268 174.70999,103.3008 Z M141.31699,146.4578 C143.72999,146.4578 145.68599,148.4358 145.68599,150.8708 C145.68599,153.3268 143.72999,155.3058 141.31699,155.3058 C138.92499,155.3058 136.94699,153.3058 136.94699,150.8708 C136.96799,148.4138 138.92499,146.4578 141.31699,146.4578 Z" fill="#FFFFFF" fill-rule="nonzero"></path>
            <circle stroke="#FFB800" stroke-width="3.24839" fill="#FFD000" fill-rule="nonzero" cx="272.86399" cy="116.4218" r="90.4135"></circle>
            <g opacity="0.4" transform="translate(0.000000, 129.415800)">
                <g>
                    <mask fill="white">
                        <use xlink:href="#path-3"></use>
                    </mask>
                    <g></g>
                    <path d="M-85.57391,-8.065 L-184.32101,163.381 L-182.69701,164.316 L-83.95031,-7.13 L-85.57391,-8.065 Z M-116.48601,-8.065 L-215.23401,163.381 L-213.61001,164.316 L-114.86301,-7.13 L-116.48601,-8.065 Z M-106.18301,-8.065 L-204.93001,163.381 L-203.30601,164.316 L-104.55901,-7.13 L-106.18301,-8.065 Z M-194.62501,163.381 L-95.87841,-8.065 L-94.25491,-7.13 L-193.00201,164.316 L-194.62501,163.381 Z M-174.01701,163.381 L-75.27041,-8.065 L-73.64691,-7.13 L-172.39401,164.316 L-174.01701,163.381 Z M-64.96621,-8.065 L-163.71301,163.381 L-162.09001,164.316 L-63.34261,-7.13 L-64.96621,-8.065 Z M-153.40901,163.381 L-54.66231,-8.065 L-53.03871,-7.13 L-151.78601,164.316 L-153.40901,163.381 Z M-44.35831,-8.065 L-143.10501,163.381 L-141.48201,164.316 L-42.73481,-7.13 L-44.35831,-8.065 Z M-132.80201,163.381 L-34.05461,-8.065 L-32.43111,-7.13 L-131.17801,164.316 L-132.80201,163.381 Z M-23.75001,-8.065 L-122.49701,163.381 L-120.87301,164.316 L-22.12641,-7.13 L-23.75001,-8.065 Z M-112.19301,163.381 L-13.44574,-8.065 L-11.82218,-7.13 L-110.56901,164.316 L-112.19301,163.381 Z M-3.14194,-8.065 L-101.88901,163.381 L-100.26541,164.316 L-1.51837,-7.13 L-3.14194,-8.065 Z M-91.58551,163.381 L7.16149,-8.065 L8.78509,-7.13 L-89.96201,164.316 L-91.58551,163.381 Z M17.46589,-8.065 L-81.28111,163.381 L-79.65761,164.316 L19.08949,-7.13 L17.46589,-8.065 Z M-70.97721,163.381 L27.76979,-8.065 L29.39339,-7.13 L-69.35361,164.316 L-70.97721,163.381 Z M38.07419,-8.065 L-60.67281,163.381 L-59.04921,164.316 L39.69779,-7.13 L38.07419,-8.065 Z M-50.36891,163.381 L48.37819,-8.065 L50.00169,-7.13 L-48.74531,164.316 L-50.36891,163.381 Z M58.68219,-8.065 L-40.06491,163.381 L-38.44131,164.316 L60.30579,-7.13 L58.68219,-8.065 Z M-29.76111,163.381 L68.98589,-8.065 L70.60949,-7.13 L-28.13761,164.316 L-29.76111,163.381 Z M79.29019,-8.065 L-19.45691,163.381 L-17.83331,164.316 L80.91369,-7.13 L79.29019,-8.065 Z M-9.1532,163.381 L89.59379,-8.065 L91.21739,-7.13 L-7.52964,164.316 L-9.1532,163.381 Z M99.89799,-8.065 L1.15118,163.381 L2.77475,164.316 L101.52199,-7.13 L99.89799,-8.065 Z" fill="#a6d6ce" mask="url(#mask-4)"></path>
                </g>
            </g>
            <g opacity="0.4" transform="translate(0.000000, 24.384400)">
                <g>
                    <mask fill="white">
                        <use xlink:href="#path-5"></use>
                    </mask>
                    <g></g>
                    <path d="M-85.57391,-35.134581 L-184.32101,136.3114 L-182.69701,137.2464 L-83.95031,-34.199466 L-85.57391,-35.134581 Z M-116.48601,-35.134553 L-215.23401,136.3114 L-213.61001,137.2464 L-114.86301,-34.199437 L-116.48601,-35.134553 Z M-106.18301,-35.134553 L-204.93001,136.3114 L-203.30601,137.2464 L-104.55901,-34.199437 L-106.18301,-35.134553 Z M-194.62501,136.3114 L-95.87841,-35.134553 L-94.25491,-34.199437 L-193.00201,137.2464 L-194.62501,136.3114 Z M-174.01701,136.3114 L-75.27041,-35.134581 L-73.64691,-34.199466 L-172.39401,137.2464 L-174.01701,136.3114 Z M-64.96621,-35.134553 L-163.71301,136.3114 L-162.09001,137.2464 L-63.34261,-34.199437 L-64.96621,-35.134553 Z M-153.40901,136.3114 L-54.66231,-35.134553 L-53.03871,-34.199437 L-151.78601,137.2464 L-153.40901,136.3114 Z M-44.35831,-35.134553 L-143.10501,136.3114 L-141.48201,137.2464 L-42.73481,-34.199437 L-44.35831,-35.134553 Z M-132.80201,136.3114 L-34.05461,-35.134553 L-32.43111,-34.199437 L-131.17801,137.2464 L-132.80201,136.3114 Z M-23.75001,-35.134553 L-122.49701,136.3114 L-120.87301,137.2464 L-22.12641,-34.199437 L-23.75001,-35.134553 Z M-112.19301,136.3114 L-13.44574,-35.134581 L-11.82218,-34.199466 L-110.56901,137.2464 L-112.19301,136.3114 Z M-3.14194,-35.134553 L-101.88901,136.3114 L-100.26541,137.2464 L-1.51837,-34.199437 L-3.14194,-35.134553 Z M-91.58551,136.3114 L7.16149,-35.134553 L8.78509,-34.199437 L-89.96201,137.2464 L-91.58551,136.3114 Z M17.46589,-35.134553 L-81.28111,136.3114 L-79.65761,137.2464 L19.08949,-34.199437 L17.46589,-35.134553 Z M-70.97721,136.3114 L27.76979,-35.134553 L29.39339,-34.199437 L-69.35361,137.2464 L-70.97721,136.3114 Z M38.07419,-35.134553 L-60.67281,136.3114 L-59.04921,137.2464 L39.69779,-34.199437 L38.07419,-35.134553 Z M-50.36891,136.3114 L48.37819,-35.134553 L50.00169,-34.199437 L-48.74531,137.2464 L-50.36891,136.3114 Z M58.68219,-35.134581 L-40.06491,136.3114 L-38.44131,137.2464 L60.30579,-34.199466 L58.68219,-35.134581 Z M-29.76111,136.3114 L68.98589,-35.134581 L70.60949,-34.199466 L-28.13761,137.2464 L-29.76111,136.3114 Z M79.29019,-35.134553 L-19.45691,136.3114 L-17.83331,137.2464 L80.91369,-34.199437 L79.29019,-35.134553 Z M-9.1532,136.3114 L89.59379,-35.134553 L91.21739,-34.199437 L-7.52964,137.2464 L-9.1532,136.3114 Z M99.89799,-35.134553 L1.15118,136.3114 L2.77475,137.2464 L101.52199,-34.199437 L99.89799,-35.134553 Z" fill="#a6d6ce" mask="url(#mask-6)"></path>
                </g>
            </g>
            <path d="M218.26199,41.7784 L218.26199,191.0658 C195.53799,174.0858 180.82599,146.9718 180.82599,116.4218 C180.82599,85.8724 195.53799,58.7586 218.26199,41.7784 Z" fill="#00b49a"></path>
            <line x1="273.80099" y1="25.4672" x2="366.14299" y2="25.4672" stroke="#FFD000" stroke-width="2.16559" stroke-linejoin="round"></line>
            <rect stroke="#FFFFFF" stroke-width="1.8736" fill="#FFD000" fill-rule="nonzero" x="267.30499" y="18.8245" width="11.12" height="11.12"></rect>
            <circle fill="#FFD000" fill-rule="nonzero" cx="365.98499" cy="25.4672" r="4.33118"></circle>
            <line x1="365.47399" y1="119.6708" x2="365.47399" y2="209.3358" stroke="#000000" stroke-width="2.16559" stroke-linejoin="round"></line>
            <rect stroke="#FFFFFF" stroke-width="1.8736" fill="#000000" fill-rule="nonzero" transform="translate(365.984990, 117.504800) rotate(90.000000) translate(-365.984990, -117.504800) " x="360.42499" y="111.9448" width="11.12" height="11.12"></rect>
            <g transform="translate(225.000000, 66.500000)" stroke="#FFFFFF">
                <path d="M42.5,36.5 L55.5,36.5 C63.5,36.5 63.5,44.5 55.5,44.5 L42.5,44.5 L42.5,36.5 Z M11.5,73.5 L51.5,73.5 L51.5,62.5 L42.5,62.5 L42.5,54.5 L52.5,54.5 C63.5,54.5 57.5,73.5 66.5,73.5 L91.5,73.5 L91.5,54.5 L85.5,54.5 L85.5,56.5 C85.5,64.5 76.5,63.5 75.5,58.5 C74.5,53.5 70.5,49.5 69.5,49.5 C84.5,41.5 75.5,25.5 63.5,25.5 L16.5,25.5 L16.5,36.5 L26.5,36.5 L26.5,62.5 L11.5,62.5 L11.5,73.5 Z" fill="#FFFFFF" fill-rule="nonzero" stroke-linejoin="round"></path>
                <circle stroke-width="9" cx="51" cy="51" r="43"></circle>
                <polygon stroke-width="3" fill="#FFFFFF" fill-rule="nonzero" stroke-linejoin="round" points="97 54 102 51 97 48"></polygon>
                <polygon stroke-width="3" fill="#FFFFFF" fill-rule="nonzero" stroke-linejoin="round" transform="translate(98.568086, 60.461881) rotate(11.250000) translate(-98.568086, -60.461881) " points="96.0680861 63.4618806 101.068086 60.4618806 96.0680861 57.4618806"></polygon>
                <polygon stroke-width="3" fill="#FFFFFF" fill-rule="nonzero" stroke-linejoin="round" transform="translate(95.808157, 69.560146) rotate(22.500000) translate(-95.808157, -69.560146) " points="93.3081573 72.5601465 98.3081573 69.5601465 93.3081573 66.5601465"></polygon>
                <polygon stroke-width="3" fill="#FFFFFF" fill-rule="nonzero" stroke-linejoin="round" transform="translate(91.326276, 77.945156) rotate(33.750000) translate(-91.326276, -77.945156) " points="88.8262762 80.9451563 93.8262762 77.9451563 88.8262762 74.9451563"></polygon>
                <polygon stroke-width="3" fill="#FFFFFF" fill-rule="nonzero" stroke-linejoin="round" transform="translate(85.294679, 85.294679) rotate(45.000000) translate(-85.294679, -85.294679) " points="82.7946789 88.2946789 87.7946789 85.2946789 82.7946789 82.2946789"></polygon>
                <polygon stroke-width="3" fill="#FFFFFF" fill-rule="nonzero" stroke-linejoin="round" transform="translate(77.945156, 91.326276) rotate(56.250000) translate(-77.945156, -91.326276) " points="75.4451563 94.3262762 80.4451563 91.3262762 75.4451563 88.3262762"></polygon>
                <polygon stroke-width="3" fill="#FFFFFF" fill-rule="nonzero" stroke-linejoin="round" transform="translate(69.560146, 95.808157) rotate(67.500000) translate(-69.560146, -95.808157) " points="67.0601465 98.8081573 72.0601465 95.8081573 67.0601465 92.8081573"></polygon>
                <polygon stroke-width="3" fill="#FFFFFF" fill-rule="nonzero" stroke-linejoin="round" transform="translate(60.461881, 98.568086) rotate(78.750000) translate(-60.461881, -98.568086) " points="57.9618806 101.568086 62.9618806 98.5680861 57.9618806 95.5680861"></polygon>
                <polygon stroke-width="3" fill="#FFFFFF" fill-rule="nonzero" stroke-linejoin="round" transform="translate(51.000000, 99.500000) rotate(90.000000) translate(-51.000000, -99.500000) " points="48.5 102.5 53.5 99.5 48.5 96.5"></polygon>
                <polygon stroke-width="3" fill="#FFFFFF" fill-rule="nonzero" stroke-linejoin="round" transform="translate(41.538119, 98.568086) rotate(101.250000) translate(-41.538119, -98.568086) " points="39.0381194 101.568086 44.0381194 98.5680861 39.0381194 95.5680861"></polygon>
                <polygon stroke-width="3" fill="#FFFFFF" fill-rule="nonzero" stroke-linejoin="round" transform="translate(32.439854, 95.808157) rotate(112.500000) translate(-32.439854, -95.808157) " points="29.9398535 98.8081573 34.9398535 95.8081573 29.9398535 92.8081573"></polygon>
                <polygon stroke-width="3" fill="#FFFFFF" fill-rule="nonzero" stroke-linejoin="round" transform="translate(24.054844, 91.326276) rotate(123.750000) translate(-24.054844, -91.326276) " points="21.5548437 94.3262762 26.5548437 91.3262762 21.5548437 88.3262762"></polygon>
                <polygon stroke-width="3" fill="#FFFFFF" fill-rule="nonzero" stroke-linejoin="round" transform="translate(16.705321, 85.294679) rotate(135.000000) translate(-16.705321, -85.294679) " points="14.2053211 88.2946789 19.2053211 85.2946789 14.2053211 82.2946789"></polygon>
                <polygon stroke-width="3" fill="#FFFFFF" fill-rule="nonzero" stroke-linejoin="round" transform="translate(10.673724, 77.945156) rotate(146.250000) translate(-10.673724, -77.945156) " points="8.1737238 80.9451563 13.1737238 77.9451563 8.1737238 74.9451563"></polygon>
                <polygon stroke-width="3" fill="#FFFFFF" fill-rule="nonzero" stroke-linejoin="round" transform="translate(6.191843, 69.560146) rotate(157.500000) translate(-6.191843, -69.560146) " points="3.69184267 72.5601465 8.69184267 69.5601465 3.69184267 66.5601465"></polygon>
                <polygon stroke-width="3" fill="#FFFFFF" fill-rule="nonzero" stroke-linejoin="round" transform="translate(3.431914, 60.461881) rotate(168.750000) translate(-3.431914, -60.461881) " points="0.9319139 63.4618806 5.9319139 60.4618806 0.9319139 57.4618806"></polygon>
                <polygon stroke-width="3" fill="#FFFFFF" fill-rule="nonzero" stroke-linejoin="round" transform="translate(2.500000, 51.000000) rotate(180.000000) translate(-2.500000, -51.000000) " points="0 54 5 51 0 48"></polygon>
                <polygon stroke-width="3" fill="#FFFFFF" fill-rule="nonzero" stroke-linejoin="round" transform="translate(3.431914, 41.538119) rotate(-168.750000) translate(-3.431914, -41.538119) " points="0.9319139 44.5381194 5.9319139 41.5381194 0.9319139 38.5381194"></polygon>
                <polygon stroke-width="3" fill="#FFFFFF" fill-rule="nonzero" stroke-linejoin="round" transform="translate(6.191843, 32.439854) rotate(-157.500000) translate(-6.191843, -32.439854) " points="3.69184267 35.4398535 8.69184267 32.4398535 3.69184267 29.4398535"></polygon>
                <polygon stroke-width="3" fill="#FFFFFF" fill-rule="nonzero" stroke-linejoin="round" transform="translate(10.673724, 24.054844) rotate(-146.250000) translate(-10.673724, -24.054844) " points="8.1737238 27.0548437 13.1737238 24.0548437 8.1737238 21.0548437"></polygon>
                <polygon stroke-width="3" fill="#FFFFFF" fill-rule="nonzero" stroke-linejoin="round" transform="translate(16.705321, 16.705321) rotate(-135.000000) translate(-16.705321, -16.705321) " points="14.2053211 19.7053211 19.2053211 16.7053211 14.2053211 13.7053211"></polygon>
                <polygon stroke-width="3" fill="#FFFFFF" fill-rule="nonzero" stroke-linejoin="round" transform="translate(24.054844, 10.673724) rotate(-123.750000) translate(-24.054844, -10.673724) " points="21.5548437 13.6737238 26.5548437 10.6737238 21.5548437 7.6737238"></polygon>
                <polygon stroke-width="3" fill="#FFFFFF" fill-rule="nonzero" stroke-linejoin="round" transform="translate(32.439854, 6.191843) rotate(-112.500000) translate(-32.439854, -6.191843) " points="29.9398535 9.19184267 34.9398535 6.19184267 29.9398535 3.19184267"></polygon>
                <polygon stroke-width="3" fill="#FFFFFF" fill-rule="nonzero" stroke-linejoin="round" transform="translate(41.538119, 3.431914) rotate(-101.250000) translate(-41.538119, -3.431914) " points="39.0381194 6.4319139 44.0381194 3.4319139 39.0381194 0.4319139"></polygon>
                <polygon stroke-width="3" fill="#FFFFFF" fill-rule="nonzero" stroke-linejoin="round" transform="translate(51.000000, 2.500000) rotate(-90.000000) translate(-51.000000, -2.500000) " points="48.5 5.5 53.5 2.5 48.5 -0.5"></polygon>
                <polygon stroke-width="3" fill="#FFFFFF" fill-rule="nonzero" stroke-linejoin="round" transform="translate(60.461881, 3.431914) rotate(-78.750000) translate(-60.461881, -3.431914) " points="57.9618806 6.4319139 62.9618806 3.4319139 57.9618806 0.4319139"></polygon>
                <polygon stroke-width="3" fill="#FFFFFF" fill-rule="nonzero" stroke-linejoin="round" transform="translate(69.560146, 6.191843) rotate(-67.500000) translate(-69.560146, -6.191843) " points="67.0601465 9.19184267 72.0601465 6.19184267 67.0601465 3.19184267"></polygon>
                <polygon stroke-width="3" fill="#FFFFFF" fill-rule="nonzero" stroke-linejoin="round" transform="translate(77.945156, 10.673724) rotate(-56.250000) translate(-77.945156, -10.673724) " points="75.4451563 13.6737238 80.4451563 10.6737238 75.4451563 7.6737238"></polygon>
                <polygon stroke-width="3" fill="#FFFFFF" fill-rule="nonzero" stroke-linejoin="round" transform="translate(85.294679, 16.705321) rotate(-45.000000) translate(-85.294679, -16.705321) " points="82.7946789 19.7053211 87.7946789 16.7053211 82.7946789 13.7053211"></polygon>
                <polygon stroke-width="3" fill="#FFFFFF" fill-rule="nonzero" stroke-linejoin="round" transform="translate(91.326276, 24.054844) rotate(-33.750000) translate(-91.326276, -24.054844) " points="88.8262762 27.0548437 93.8262762 24.0548437 88.8262762 21.0548437"></polygon>
                <polygon stroke-width="3" fill="#FFFFFF" fill-rule="nonzero" stroke-linejoin="round" transform="translate(95.808157, 32.439854) rotate(-22.500000) translate(-95.808157, -32.439854) " points="93.3081573 35.4398535 98.3081573 32.4398535 93.3081573 29.4398535"></polygon>
                <polygon stroke-width="3" fill="#FFFFFF" fill-rule="nonzero" stroke-linejoin="round" transform="translate(98.568086, 41.538119) rotate(-11.250000) translate(-98.568086, -41.538119) " points="96.0680861 44.5381194 101.068086 41.5381194 96.0680861 38.5381194"></polygon>
                <polygon stroke-width="6" fill="#FFFFFF" fill-rule="nonzero" stroke-linejoin="round" points="44 9 51 16 58 9"></polygon>
                <polygon stroke-width="6" fill="#FFFFFF" fill-rule="nonzero" stroke-linejoin="round" transform="translate(87.615676, 39.102846) rotate(72.000000) translate(-87.615676, -39.102846) " points="80.6156759 35.6028457 87.6156759 42.6028457 94.6156759 35.6028457"></polygon>
                <polygon stroke-width="6" fill="#FFFFFF" fill-rule="nonzero" stroke-linejoin="round" transform="translate(73.629732, 82.147154) rotate(144.000000) translate(-73.629732, -82.147154) " points="66.6297322 78.6471543 73.6297322 85.6471543 80.6297322 78.6471543"></polygon>
                <polygon stroke-width="6" fill="#FFFFFF" fill-rule="nonzero" stroke-linejoin="round" transform="translate(28.370268, 82.147154) rotate(-144.000000) translate(-28.370268, -82.147154) " points="21.3702678 78.6471543 28.3702678 85.6471543 35.3702678 78.6471543"></polygon>
                <polygon stroke-width="6" fill="#FFFFFF" fill-rule="nonzero" stroke-linejoin="round" transform="translate(14.384324, 39.102846) rotate(-72.000000) translate(-14.384324, -39.102846) " points="7.38432412 35.6028457 14.3843241 42.6028457 21.3843241 35.6028457"></polygon>
            </g>
            <circle fill="#000000" fill-rule="nonzero" cx="365.98599" cy="207.3768" r="4.33118"></circle>
        </g>
    </g>
</svg>
