<?xml version="1.0" encoding="UTF-8"?>
<svg width="425px" height="346px" viewBox="0 0 425 346" version="1.1" xmlns="http://www.w3.org/2000/svg" xmlns:xlink="http://www.w3.org/1999/xlink">
    <defs>
        <linearGradient x1="50%" y1="14.4960248%" x2="50%" y2="100.310559%" id="linearGradient-1">
            <stop stop-color="#c4f0ea" offset="0%"></stop>
            <stop stop-color="#c4f0ea" stop-opacity="0" offset="100%"></stop>
        </linearGradient>
        <circle id="path-2" cx="75" cy="75" r="75"></circle>
    </defs>
    <g  stroke="none" stroke-width="1" fill="none" fill-rule="evenodd">
        <g  transform="translate(1.000000, 1.000000)">
            <path d="M63,53 C63,35.8792 76.8792,22 94,22 L392,22 C409.121,22 423,35.8792 423,53 L423,344 L63,344 L63,53 Z" stroke="url(#linearGradient-1)" stroke-width="2" fill="#FFFFFF" fill-rule="nonzero"></path>
            <path d="M218,69 C218,66.7909 219.791,65 222,65 L299,65 C301.209,65 303,66.7909 303,69 L303,85 C303,87.2091 301.209,89 299,89 L222,89 C219.791,89 218,87.2091 218,85 L218,69 Z" fill="#e8faf8" fill-rule="nonzero"></path>
            <path d="M173,69 C173,66.7909 174.791,65 177,65 L197,65 C199.209,65 201,66.7909 201,69 L201,85 C201,87.2091 199.209,89 197,89 L177,89 C174.791,89 173,87.2091 173,85 L173,69 Z" fill="#e8faf8" fill-rule="nonzero"></path>
            <path d="M398,144 C398,135.163 390.837,128 382,128 C373.163,128 366,135.163 366,144 C366,152.837 373.163,160 382,160 C390.837,160 398,152.837 398,144 Z" fill="#e8faf8" fill-rule="nonzero"></path>
            <path d="M398,209 C398,200.163 390.837,193 382,193 C373.163,193 366,200.163 366,209 C366,217.837 373.163,225 382,225 C390.837,225 398,217.837 398,209 Z" fill="#e8faf8" fill-rule="nonzero"></path>
            <path d="M389.855,205.999 L382.001,201.379 L374.146,205.999 L382.001,210.619 L389.855,205.999 Z M382.001,208.879 L377.105,205.999 L382.001,203.119 L386.896,205.999 L382.001,208.879 Z M381.999,212.266 L375.613,208.719 L374.885,210.03 L381.999,213.982 L389.113,210.03 L388.385,208.719 L381.999,212.266 Z M381.999,215.641 L375.613,212.094 L374.885,213.405 L381.999,217.357 L389.113,213.405 L388.385,212.094 L381.999,215.641 Z" fill="#7cccbe"></path>
            <path d="M382.719,136.084 L382.72,138.288 C385.329,138.618 387.383,140.672 387.713,143.281 L389.916,143.281 L389.916,144.72 L387.713,144.721 C387.383,147.33 385.329,149.384 382.72,149.714 L382.719,151.917 L381.28,151.917 L381.28,149.714 C378.671,149.384 376.617,147.33 376.287,144.721 L374.083,144.72 L374.083,143.281 L376.287,143.281 C376.616,140.672 378.671,138.617 381.28,138.288 L381.28,136.084 L382.719,136.084 Z M382,139.682 C379.615,139.682 377.681,141.616 377.681,144.001 C377.681,146.386 379.615,148.319 382,148.319 C384.385,148.319 386.318,146.386 386.318,144.001 C386.318,141.616 384.385,139.682 382,139.682 Z M382,142.561 C382.795,142.561 383.439,143.206 383.439,144.001 C383.439,144.796 382.795,145.44 382,145.44 C381.205,145.44 380.56,144.796 380.56,144.001 C380.56,143.206 381.205,142.561 382,142.561 Z" fill="#7cccbe" fill-rule="nonzero"></path>
            <path d="M176.236,200.76 L174.688,200.76 L169.972,208.374 L165.256,200.76 L163.708,200.76 L163.708,213 L165.886,213 L165.85,205.476 L169.324,211.038 L170.638,211.038 L174.058,205.548 L174.058,213 L176.236,213 L176.236,200.76 Z M179.992,202.65 C180.712,202.65 181.288,202.11 181.288,201.408 C181.288,200.67 180.712,200.13 179.992,200.13 C179.272,200.13 178.696,200.67 178.696,201.408 C178.696,202.11 179.272,202.65 179.992,202.65 Z M181.036,204.486 L178.966,204.486 L178.966,213 L181.036,213 L181.036,204.486 Z M188.319,204.216 C187.293,204.216 186.429,204.576 185.691,205.188 L185.691,204.486 L183.603,204.486 L183.603,213 L185.691,213 L185.691,207.33 C186.339,206.538 187.149,206.106 187.887,206.106 C189.183,206.106 189.975,206.934 189.975,208.428 L189.975,213 L192.045,213 L192.045,208.302 C192.045,205.836 190.551,204.216 188.319,204.216 Z M201.125,200.22 L199.037,200.22 L199.037,213 L201.125,213 L201.125,200.22 Z M207.623,204.288 C205.031,204.288 203.087,206.178 203.087,208.752 C203.087,211.344 205.031,213.27 207.623,213.27 C210.197,213.27 212.141,211.344 212.141,208.752 C212.141,206.178 210.197,204.288 207.623,204.288 Z M207.623,211.38 C206.147,211.38 205.157,210.21 205.157,208.752 C205.157,207.312 206.147,206.178 207.623,206.178 C209.081,206.178 210.071,207.312 210.071,208.752 C210.071,210.21 209.081,211.38 207.623,211.38 Z M220.094,211.128 C219.644,211.254 219.122,211.344 218.654,211.344 C217.646,211.344 217.034,210.858 217.034,209.724 L217.034,206.232 L220.184,206.232 L220.184,204.486 L217.034,204.486 L217.034,201.372 L214.964,201.372 L214.964,204.486 L213.02,204.486 L213.02,206.232 L214.964,206.232 L214.964,209.724 C214.964,211.92 216.224,213.27 218.258,213.27 C218.996,213.27 219.428,213.198 220.382,212.91 L220.094,211.128 Z M226.339,210.12 C226.537,212.46 228.337,213.27 230.281,213.27 C232.423,213.27 234.025,212.28 234.025,210.462 C234.025,208.806 232.783,208.23 231.487,207.996 L229.903,207.744 C228.985,207.582 228.697,207.186 228.697,206.772 C228.697,206.268 229.219,205.854 230.227,205.854 C231.199,205.854 231.991,206.232 232.063,207.096 L233.989,207.078 C233.791,204.756 231.685,204.252 230.227,204.252 C228.103,204.252 226.645,205.278 226.645,206.988 C226.645,208.536 227.869,209.202 229.165,209.436 L231.019,209.742 C231.685,209.868 232.045,210.192 232.045,210.642 C232.045,211.218 231.343,211.578 230.335,211.578 C229.183,211.578 228.427,211.146 228.247,210.138 L226.339,210.12 Z M237.226,202.65 C237.946,202.65 238.522,202.11 238.522,201.408 C238.522,200.67 237.946,200.13 237.226,200.13 C236.506,200.13 235.93,200.67 235.93,201.408 C235.93,202.11 236.506,202.65 237.226,202.65 Z M238.27,204.486 L236.2,204.486 L236.2,213 L238.27,213 L238.27,204.486 Z M247.911,205.602 L247.911,204.486 L240.387,204.486 L240.387,206.214 L244.923,206.214 L240.261,212.028 L240.261,213 L247.911,213 L247.911,211.272 L243.339,211.272 L247.911,205.602 Z M257.836,208.608 C257.818,206.052 256.036,204.288 253.678,204.288 C250.96,204.288 249.16,206.214 249.16,208.752 C249.16,211.272 250.96,213.198 253.678,213.198 C255.622,213.198 257.188,212.208 257.674,210.642 L255.46,210.642 C255.154,211.164 254.56,211.434 253.732,211.434 C252.292,211.434 251.5,210.624 251.248,209.562 L257.764,209.562 L257.782,209.562 C257.836,209.238 257.836,208.914 257.836,208.608 Z M253.57,206.052 C254.812,206.052 255.568,206.808 255.73,208.014 L251.23,208.014 C251.464,206.916 252.238,206.052 253.57,206.052 Z M272.541,211.236 L269.517,211.236 L269.517,200.76 L268.293,200.76 L264.297,202.2 L264.297,204.036 L267.357,203.064 L267.357,211.236 L264.135,211.236 L264.135,213 L272.541,213 L272.541,211.236 Z" fill="#7cccbe" fill-rule="nonzero"></path>
            <path d="M192.56,140.768 C193.616,140.024 194.216,138.848 194.216,137.36 C194.216,134.48 192.08,132.416 188.84,132.416 C185.696,132.416 183.488,134.408 183.272,137.336 L186.584,137.336 C186.728,136.136 187.64,135.32 188.888,135.32 C190.16,135.32 191.024,136.136 191.024,137.432 C191.024,138.68 190.088,139.544 188.672,139.544 L187.376,139.544 L187.376,142.256 L188.672,142.256 C190.352,142.256 191.528,143.072 191.528,144.368 C191.528,145.568 190.496,146.456 188.984,146.456 C187.184,146.456 186.584,145.664 186.248,144.44 L182.912,144.44 C183.344,147.416 185.24,149.36 188.936,149.36 C192.416,149.36 194.744,147.2 194.744,144.368 C194.744,142.688 193.952,141.488 192.56,140.768 Z M207.978,146.168 L204.066,146.168 L204.066,132.68 L202.074,132.68 L196.698,134.576 L196.698,137.528 L200.658,136.352 L200.658,146.168 L196.506,146.168 L196.506,149 L207.978,149 L207.978,146.168 Z M213.413,138.464 L213.413,135.728 L220.517,135.728 L220.517,132.68 L210.245,132.68 L210.245,141.368 L215.021,141.368 C216.869,141.368 217.997,142.4 217.997,143.84 C217.997,145.328 216.869,146.456 215.237,146.456 C213.605,146.456 212.741,145.664 212.381,144.44 L209.045,144.44 C209.477,147.416 211.685,149.36 215.237,149.36 C218.789,149.36 221.213,146.984 221.213,143.744 C221.213,140.696 218.933,138.464 215.477,138.464 L213.413,138.464 Z M224.414,149.456 C225.518,149.456 226.406,148.64 226.406,147.536 C226.406,146.456 225.518,145.64 224.414,145.64 C223.334,145.64 222.446,146.456 222.446,147.536 C222.446,148.64 223.334,149.456 224.414,149.456 Z M239.502,146.168 L235.59,146.168 L235.59,132.68 L233.598,132.68 L228.222,134.576 L228.222,137.528 L232.182,136.352 L232.182,146.168 L228.03,146.168 L228.03,149 L239.502,149 L239.502,146.168 Z M245.901,132.32 C242.133,132.32 239.493,134.912 239.493,138.224 C239.493,141.416 242.061,143.864 245.733,143.936 L242.541,149 L246.549,149 L250.821,142.232 C251.757,140.72 252.309,139.544 252.309,138.128 C252.309,134.96 249.693,132.32 245.901,132.32 Z M247.989,140.36 C247.437,140.744 246.717,140.96 245.901,140.96 C244.077,140.96 242.829,139.592 242.829,138.056 C242.829,136.496 244.101,135.08 245.901,135.08 C247.725,135.08 248.997,136.496 248.997,138.008 C248.997,138.752 248.733,139.328 248.013,140.336 L247.989,140.36 Z" fill="#7cccbe" fill-rule="nonzero"></path>
            <path d="M346,144 C346,135.163 338.837,128 330,128 C321.163,128 314,135.163 314,144 C314,152.837 321.163,160 330,160 C338.837,160 346,152.837 346,144 Z" fill="#e8faf8" fill-rule="nonzero"></path>
            <polygon fill="#7cccbe" fill-rule="nonzero" points="329.333 144.667 329.333 150.667 330.667 150.667 330.667 144.667 336.667 144.667 336.667 143.333 330.667 143.333 330.667 137.333 329.333 137.333 329.333 143.333 323.333 143.333 323.333 144.667"></polygon>
            <path d="M346,209 C346,200.163 338.837,193 330,193 C321.163,193 314,200.163 314,209 C314,217.837 321.163,225 330,225 C338.837,225 346,217.837 346,209 Z" fill="#e8faf8" fill-rule="nonzero"></path>
            <polygon fill="#7cccbe" fill-rule="nonzero" points="329.333 209.667 329.333 215.667 330.667 215.667 330.667 209.667 336.667 209.667 336.667 208.333 330.667 208.333 330.667 202.333 329.333 202.333 329.333 208.333 323.333 208.333 323.333 209.667"></polygon>
            <line x1="88" y1="176.5" x2="397.549" y2="176.5" stroke="#EAEBEC" stroke-width="0.5" stroke-linecap="square"></line>
            <line x1="88" y1="241.5" x2="397.549" y2="241.5" stroke="#EAEBEC" stroke-width="0.5" stroke-linecap="square"></line>
            <line x1="88" y1="111.5" x2="397.549" y2="111.5" stroke="#EAEBEC" stroke-width="0.5" stroke-linecap="square"></line>
            <path d="M120,144 C120,135.163 112.837,128 104,128 C95.1634,128 88,135.163 88,144 C88,152.837 95.1634,160 104,160 C112.837,160 120,152.837 120,144 Z" fill="#e8faf8" fill-rule="nonzero"></path>
            <polygon fill="#82ccbf" fill-rule="nonzero" points="97.3333 143.333 110.667 143.333 110.667 144.667 97.3333 144.667"></polygon>
            <path d="M120,209 C120,200.163 112.837,193 104,193 C95.1634,193 88,200.163 88,209 C88,217.837 95.1634,225 104,225 C112.837,225 120,217.837 120,209 Z" fill="#e8faf8" fill-rule="nonzero"></path>
            <path d="M354,77 C354,68.1634 346.837,61 338,61 C329.163,61 322,68.1634 322,77 C322,85.8366 329.163,93 338,93 C346.837,93 354,85.8366 354,77 Z" fill="#FF2720" fill-rule="nonzero"></path>
            <path d="M398,77 C398,68.1634 390.837,61 382,61 C373.163,61 366,68.1634 366,77 C366,85.8366 373.163,93 382,93 C390.837,93 398,85.8366 398,77 Z" fill="#FFD000" fill-rule="nonzero"></path>
            <polygon fill="#82ccbf" fill-rule="nonzero" points="97.3333 208.333 110.667 208.333 110.667 209.667 97.3333 209.667"></polygon>
            <rect fill="#e8faf8" fill-rule="nonzero" x="246" y="260" width="152" height="36" rx="18"></rect>
            <path d="M308.453,274.136 L308.453,271.76 L297.671,271.76 L297.671,274.136 L301.757,274.136 L301.757,284 L304.367,284 L304.367,274.136 L308.453,274.136 Z M310.7,275.378 L308.198,275.378 L308.198,284 L310.7,284 L310.7,278.852 C311.42,278.06 312.374,277.664 313.724,277.61 L313.724,275.234 C312.446,275.234 311.474,275.63 310.7,276.35 L310.7,275.378 Z M323.874,275.378 L321.372,275.378 L321.372,275.882 C320.706,275.45 319.896,275.198 318.924,275.198 C316.548,275.198 314.622,277.16 314.622,279.698 C314.622,282.2 316.548,284.18 318.924,284.18 C319.896,284.18 320.706,283.928 321.372,283.496 L321.372,284 L323.874,284 L323.874,275.378 Z M319.338,282.056 C318.024,282.056 317.106,280.958 317.106,279.698 C317.106,278.42 318.024,277.304 319.338,277.304 C320.076,277.304 320.814,277.556 321.372,278.312 L321.372,281.066 C320.814,281.804 320.076,282.056 319.338,282.056 Z M334.754,271.22 L332.252,271.22 L332.252,275.882 C331.586,275.45 330.776,275.198 329.804,275.198 C327.428,275.198 325.502,277.178 325.502,279.68 C325.502,282.218 327.428,284.18 329.804,284.18 C330.776,284.18 331.586,283.928 332.252,283.496 L332.252,284 L334.754,284 L334.754,271.22 Z M330.218,282.074 C328.904,282.074 327.986,280.958 327.986,279.68 C327.986,278.42 328.904,277.322 330.218,277.322 C330.956,277.322 331.694,277.574 332.252,278.312 L332.252,281.066 C331.694,281.822 330.956,282.074 330.218,282.074 Z M345.31,279.518 C345.31,276.944 343.474,275.198 341.044,275.198 C338.29,275.198 336.454,277.106 336.454,279.698 C336.454,282.272 338.308,284.198 341.08,284.198 C343.114,284.198 344.734,283.136 345.202,281.48 L342.592,281.48 C342.322,281.912 341.836,282.128 341.134,282.128 C339.892,282.128 339.226,281.462 338.974,280.598 L345.256,280.598 C345.31,280.238 345.31,279.878 345.31,279.518 Z M340.972,277.25 C342.016,277.25 342.682,277.844 342.826,278.852 L338.938,278.852 C339.172,277.934 339.82,277.25 340.972,277.25 Z" fill="#7cccbe" fill-rule="nonzero"></path>
            <circle stroke="#c4f0ea" stroke-width="2" fill="#FFFFFF" fill-rule="nonzero" cx="76" cy="76" r="76"></circle>
            <g id="Clipped" transform="translate(1.000000, 1.000000)">
                <mask id="mask-3" fill="white">
                    <use xlink:href="#path-2"></use>
                </mask>
                <g></g>
                <g mask="url(#mask-3)" fill-rule="nonzero">
                    <g transform="translate(30.750000, -18.183500)">
                        <rect stroke="none" fill="#e8faf8" x="46.75" y="18.1835" width="90" height="150"></rect>
                        <rect stroke="#c4f0ea" stroke-width="1.5" fill="#FFFFFF" x="0" y="61.9335" width="128.5" height="62.5" rx="9.25"></rect>
                        <path d="M42.6383,85.7464 L45.2417,83.1768 C44.4167,82.254 43.5917,81.4216 42.6567,80.6254 L40.0533,83.2311 C37.2117,80.9511 33.6367,79.6121 29.75,79.6121 C20.6383,79.6121 13.25,86.9045 13.25,95.8978 C13.25,104.8911 20.6383,112.1835 29.75,112.1835 C38.9167,112.1835 46.25,104.8911 46.25,95.8978 C46.25,92.0616 44.8933,88.533 42.6383,85.7464 Z M40.9274,96.3502 L40.9274,99.5168 L27.9167,99.5168 L27.9167,96.3502 L27.9167,85.0406 L31.5833,85.0406 L31.5833,96.3502 L40.9274,96.3502 Z M35.25,74.1835 L24.25,74.1835 L24.25,77.8025 L35.25,77.8025 L35.25,74.1835 Z" stroke="none" fill="#FFC800"></path>
                        <polygon stroke="none" fill="#e8faf8" points="58.25 77.1835 102.25 77.1835 102.25 89.1835 58.25 89.1835"></polygon>
                        <polygon stroke="none" fill="#e8faf8" points="58.25 97.1835 82.25 97.1835 82.25 109.1835 58.25 109.1835"></polygon>
                        <rect stroke="#c4f0ea" stroke-width="1.63291" fill="#FFFFFF" x="20.0665" y="-5.32907052e-15" width="103.367" height="45.8671" rx="9.18354"></rect>
                        <rect stroke="#c4f0ea" stroke-width="1.63291" fill="#FFFFFF" x="20.0665" y="140.4995" width="103.367" height="45.8671" rx="9.18354"></rect>
                    </g>
                </g>
            </g>
        </g>
    </g>
</svg>
