<svg width="114" height="22" viewBox="0 0 114 22" fill="none" xmlns="http://www.w3.org/2000/svg">
  <path d="M4.89336 4.87528H0V4.02745V0.000305176H4.89336V4.87528Z" fill="#251714" />
  <path d="M31.1442 4.86972H6.57227V4.02277V0H31.1442V4.86972Z" fill="#FF0000" />
  <path d="M0 7.23932V13.7705V18.7558V22L6.52244 18.7707L6.52769 18.7558H22.074V7.23932H0Z" fill="#00A3FF" />
  <path d="M31.1437 7.23932H23.748V18.7558H31.1437V7.23932Z" fill="#FEBF00" />
  <path d="M42.9023 9.50305H44.4234V17.6096H48.7567V18.9726H42.9023V9.50305V9.50305Z" fill="#040000" />
  <path
    d="M48.9316 14.2377C48.9316 11.4685 51.1414 9.34497 53.8962 9.34497C56.6367 9.34497 58.8751 11.4685 58.8751 14.2377C58.8751 17.0213 56.6367 19.1305 53.8962 19.1305C51.127 19.1299 48.9316 17.0063 48.9316 14.2377ZM57.311 14.2234C57.311 12.229 55.8474 10.7367 53.9106 10.7367C51.945 10.7367 50.5101 12.2147 50.5101 14.2234C50.5101 16.2608 51.945 17.7387 53.9106 17.7387C55.8474 17.7381 57.311 16.2608 57.311 14.2234Z"
    fill="#040000" />
  <path
    d="M67.9266 9.50234V19.1299H67.4103L61.6421 12.5587V18.9725H60.1211V9.34497H60.6518L66.4056 15.8874V9.50234H67.9266Z"
    fill="#040000" />
  <path
    d="M69.1777 14.2377C69.1777 11.4685 71.3731 9.34497 74.171 9.34497C75.835 9.34497 77.1981 10.0768 78.0879 11.3249L76.9833 12.229C76.3233 11.2962 75.3905 10.7367 74.1567 10.7367C72.1336 10.7367 70.7562 12.229 70.7562 14.2234C70.7562 16.2608 72.1767 17.7674 74.2428 17.7674C75.5197 17.7674 76.4956 17.1936 77.0695 16.3326V15.3136H74.1573V13.9649H78.5905V16.6335C77.7725 18.1115 76.1228 19.1299 74.1716 19.1299C71.3587 19.1299 69.1777 17.0063 69.1777 14.2377Z"
    fill="#040000" />
  <path
    d="M79.8809 9.50226H83.3388C85.2613 9.50226 86.5525 10.6786 86.5525 12.4007C86.5525 14.1078 85.2613 15.3135 83.3388 15.3135H81.4019V18.9724H79.8809V9.50226ZM83.31 13.9648C84.4008 13.9648 84.9884 13.3192 84.9884 12.4151C84.9884 11.4966 84.4002 10.851 83.31 10.851H81.4019V13.9648H83.31Z"
    fill="#040000" />
  <path
    d="M87.0957 14.2377C87.0957 11.4685 89.3054 9.34497 92.0603 9.34497C94.8007 9.34497 97.0392 11.4685 97.0392 14.2377C97.0392 17.0213 94.8007 19.1305 92.0603 19.1305C89.2911 19.1299 87.0957 17.0063 87.0957 14.2377ZM95.4751 14.2234C95.4751 12.229 94.0115 10.7367 92.0746 10.7367C90.109 10.7367 88.6742 12.2147 88.6742 14.2234C88.6742 16.2608 90.109 17.7387 92.0746 17.7387C94.0115 17.7381 95.4751 16.2608 95.4751 14.2234Z"
    fill="#040000" />
  <path
    d="M104.245 18.9724L101.548 15.3135H99.812V18.9724H98.291V9.50226H101.749C103.671 9.50226 104.963 10.6786 104.963 12.4007C104.963 13.6489 104.274 14.6391 103.141 15.0694L105.982 18.9718H104.245V18.9724ZM99.812 13.9648H101.72C102.797 13.9648 103.399 13.3192 103.399 12.4151C103.399 11.4966 102.796 10.851 101.72 10.851H99.812V13.9648Z"
    fill="#040000" />
  <path d="M108.634 10.8653H105.449V9.50226H113.355V10.8653H110.155V18.9718H108.634V10.8653Z" fill="#040000" />
</svg>