<?xml version="1.0" encoding="UTF-8"?>
<svg width="110px" height="86px" viewBox="0 0 110 86" version="1.1" xmlns="http://www.w3.org/2000/svg" xmlns:xlink="http://www.w3.org/1999/xlink">
    <g stroke="none" stroke-width="1" fill="none" fill-rule="evenodd">
        <g fill-rule="nonzero">
            <circle stroke="#E3EAF5" stroke-width="1.87097" fill="#FFFFFF" cx="67" cy="43" r="42.0645"></circle>
            <circle fill="#FFC800" cx="43" cy="43" r="43"></circle>
            <path d="M43.4937,38.0134 L52.3334,46.8883 L45.2042,54.0448 L45.2042,62 L41.7947,62 L41.7947,54.0562 L34.6541,46.8883 L43.4937,38.0134 Z M43.4324,25 C50.1297,25 55.677,29.9486 56.6441,36.4023 L56.6851,36.7023 L56.8862,36.7069 C62.9483,36.8712 67.8318,41.7742 67.9955,47.8604 L68,48.1753 C68,54.2753 63.2529,59.2821 57.2147,59.6312 L56.8953,59.6449 L56.5725,59.6495 L49.3274,59.6495 L49.3274,56.2264 L56.5464,56.2264 L56.8192,56.2219 C57.8952,56.1876 58.9533,55.9361 59.9304,55.4824 C60.9075,55.0287 61.7836,54.3821 62.5065,53.5812 C63.2293,52.7803 63.7841,51.8414 64.1378,50.8205 C64.4915,49.7997 64.6367,48.7178 64.565,47.6394 C64.4932,46.5609 64.2059,45.5081 63.7201,44.5435 C63.2343,43.579 62.56,42.7225 61.7375,42.0253 C60.9149,41.328 59.9609,40.8041 58.9324,40.485 C57.9039,40.1658 56.8218,40.0579 55.7509,40.1676 L55.3451,40.219 L53.3642,40.5236 L53.3835,38.4139 C53.3835,35.7642 52.3351,33.223 50.4689,31.3493 C48.6027,29.4757 46.0716,28.4231 43.4324,28.4231 C38.0352,28.4231 33.6415,32.7384 33.4858,38.0898 L33.4812,38.3819 L33.5199,40.478 L31.5446,40.203 C29.4897,40.1286 27.4849,40.8497 25.9445,42.2172 C24.4041,43.5847 23.4459,45.4941 23.2679,47.5508 C23.0898,49.6075 23.7056,51.6542 24.988,53.268 C26.2704,54.8818 28.1212,55.9392 30.1581,56.2219 L30.4275,56.2264 L37.6715,56.2264 L37.6715,59.6495 L30.4275,59.6495 C24.1165,59.6495 19,54.5126 19,48.1753 C19,42.0503 23.7812,37.0458 29.8001,36.7195 L30.1797,36.7046 L30.2218,36.4023 C31.1719,30.0582 36.5486,25.1689 43.0937,25.0046 L43.4324,25 Z M43.4949,42.8525 L39.4762,46.886 L43.4949,50.9207 L47.5124,46.886 L43.4949,42.8525 Z" fill="#FFFFFF"></path>
        </g>
    </g>
</svg>
