<?xml version="1.0" encoding="UTF-8"?>
<svg width="110px" height="86px" viewBox="0 0 110 86" version="1.1" xmlns="http://www.w3.org/2000/svg" xmlns:xlink="http://www.w3.org/1999/xlink">
    <g stroke="none" stroke-width="1" fill="none" fill-rule="evenodd">
        <g fill-rule="nonzero">
            <circle stroke="#E3EAF5" stroke-width="1.87097" fill="#FFFFFF" cx="67" cy="43" r="42.0645"></circle>
            <circle fill="#95c123" cx="43" cy="43" r="43"></circle>
            <path d="M41.2274,39.9743 L44.7144,39.98 L44.6656,67 L41.1786,66.9931 L41.2274,39.9743 Z M42.9826,19 L53.3448,29.5344 L53.3448,37.9875 L64,48.5518 L64,56.1637 L53.3239,56.1637 L53.3239,61.0788 L49.8369,61.0788 L49.8369,54.6644 L49.8578,54.6644 L49.8578,30.9404 L42.9826,23.9509 L36.1085,30.9392 L36.1585,56.1199 L36.1422,56.1199 L36.1422,61.0788 L32.6552,61.0788 L32.6552,56.1199 L22,56.1199 L22,48.5518 L32.6354,38.0059 L32.6191,29.5355 L42.9826,19 Z M53.3448,42.8773 L53.3448,52.7064 L60.513,52.7064 L60.513,49.9843 L53.3448,42.8773 Z M32.6447,42.8865 L25.487,49.9832 L25.487,52.6626 L32.6645,52.6626 L32.6447,42.8865 Z" fill="#FFFFFF"></path>
        </g>
    </g>
</svg>
